<svg xmlns="http://www.w3.org/2000/svg" width="964" height="605" viewBox="0 0 964 605" font-family="DejaVu Sans, Helvetica, sans-serif">
<rect width="100%" height="100%" fill="#ffffff"/>
<text x="26" y="26" font-size="16" font-weight="bold">De Motu, drafts and the proposed 1694 ordering</text>
<text x="26" y="44" font-size="11" fill="#555">edge pattern gives evidence status; ochre arrows are proposed-stage edges</text>
<defs><marker id="arrow" viewBox="0 0 10 10" refX="9" refY="5" markerWidth="7" markerHeight="7" orient="auto-start-reverse"><path d="M 0 0 L 10 5 L 0 10 z" fill="context-stroke"/></marker></defs>
<path d="M 223.2 152.0 C 450.2 152.0, 450.2 107.0, 677.2 107.0" fill="none" stroke="#33475b" stroke-width="1.3" marker-end="url(#arrow)" opacity="0.85"/>
<path d="M 603.2 167.0 C 640.2 167.0, 640.2 107.0, 677.2 107.0" fill="none" stroke="#33475b" stroke-width="1.3" marker-end="url(#arrow)" opacity="0.85"/>
<path d="M 258.4 92.0 C 337.0 92.0, 337.0 92.0, 415.6 92.0" fill="none" stroke="#33475b" stroke-width="1.3" marker-end="url(#arrow)" opacity="0.85"/>
<path d="M 280.8 219.5 C 317.8 219.5, 317.8 167.0, 354.8 167.0" fill="none" stroke="#33475b" stroke-width="1.3" marker-end="url(#arrow)" opacity="0.85"/>
<path d="M 216.8 347.0 C 303.4 347.0, 303.4 302.0, 390.0 302.0" fill="none" stroke="#8a6d1f" stroke-width="1.3" marker-end="url(#arrow)" opacity="0.85"/>
<path d="M 248.8 287.0 C 317.8 287.0, 317.8 242.0, 386.8 242.0" fill="none" stroke="#8a6d1f" stroke-width="1.3" stroke-dasharray="2 4" marker-end="url(#arrow)" opacity="0.85"/>
<rect x="48.4" y="70.0" width="210.0" height="44.0" rx="5" fill="#e8d5b7" stroke="#8d8d8d" stroke-width="1.0"/>
<text x="57.4" y="88.0" font-size="12" font-weight="bold" fill="#1a1a1a">DM90.L2</text>
<text x="57.4" y="103.0" font-size="12" fill="#444">Initial quadratic displacement</text>
<rect x="415.6" y="70.0" width="126.8" height="44.0" rx="5" fill="#e8d5b7" stroke="#8d8d8d" stroke-width="1.0"/>
<text x="424.6" y="88.0" font-size="12" font-weight="bold" fill="#1a1a1a">DM90.local</text>
<text x="424.6" y="103.0" font-size="12" fill="#444">Local force proof</text>
<rect x="390.0" y="280.0" width="178.0" height="44.0" rx="5" fill="#f7e6c4" stroke="#8d8d8d" stroke-width="1.0"/>
<text x="399.0" y="298.0" font-size="12" font-weight="bold" fill="#1a1a1a">Draft.booklet</text>
<text x="399.0" y="313.0" font-size="12" fill="#444">Separate proposed booklet</text>
<rect x="386.8" y="220.0" width="184.4" height="44.0" rx="5" fill="#f7e6c4" stroke="#8d8d8d" stroke-width="1.0"/>
<text x="395.8" y="238.0" font-size="12" font-weight="bold" fill="#1a1a1a">Draft.conic</text>
<text x="395.8" y="253.0" font-size="12" fill="#444">Proposed conic application</text>
<rect x="58.0" y="265.0" width="190.8" height="44.0" rx="5" fill="#f7e6c4" stroke="#8d8d8d" stroke-width="1.0"/>
<text x="67.0" y="283.0" font-size="12" font-weight="bold" fill="#1a1a1a">Draft.sagitta</text>
<text x="67.0" y="298.0" font-size="12" fill="#444">Sagitta and curvature route</text>
<rect x="90.0" y="325.0" width="126.8" height="44.0" rx="5" fill="#f7e6c4" stroke="#8d8d8d" stroke-width="1.0"/>
<text x="99.0" y="343.0" font-size="12" font-weight="bold" fill="#1a1a1a">Draft.sections</text>
<text x="99.0" y="358.0" font-size="12" fill="#444">Sections IV and V</text>
<rect x="354.8" y="130.0" width="248.4" height="74.0" rx="5" fill="#e8d5b7" stroke="#2c6e31" stroke-width="2.2"/>
<text x="363.8" y="148.0" font-size="12" font-weight="bold" fill="#1a1a1a">NATP00090.L1</text>
<text x="363.8" y="163.0" font-size="12" fill="#444">Parallelogram composition of motions</text>
<text x="363.8" y="178.0" font-size="12" fill="#444">produced in the same time</text>
<text x="363.8" y="193.0" font-size="12" fill="#2c6e31">2 Lean result(s)</text>
<rect x="83.6" y="130.0" width="139.6" height="44.0" rx="5" fill="#e8d5b7" stroke="#8d8d8d" stroke-width="1.0"/>
<text x="92.6" y="148.0" font-size="12" font-weight="bold" fill="#1a1a1a">NATP00090.Law1</text>
<text x="92.6" y="163.0" font-size="12" fill="#444">Rectilinear inertia</text>
<rect x="26.0" y="190.0" width="254.8" height="59.0" rx="5" fill="#e8d5b7" stroke="#8d8d8d" stroke-width="1.0"/>
<text x="35.0" y="208.0" font-size="12" font-weight="bold" fill="#1a1a1a">NATP00090.Law2</text>
<text x="35.0" y="223.0" font-size="12" fill="#444">Change of state proportional to the</text>
<text x="35.0" y="238.0" font-size="12" fill="#444">impressed force and in its direction;</text>
<rect x="677.2" y="70.0" width="261.2" height="74.0" rx="5" fill="#e8d5b7" stroke="#2c6e31" stroke-width="2.2"/>
<text x="686.2" y="88.0" font-size="12" font-weight="bold" fill="#1a1a1a">NATP00090.T1</text>
<text x="686.2" y="103.0" font-size="12" fill="#444">Polygonal equal areas; infinitely many</text>
<text x="686.2" y="118.0" font-size="12" fill="#444">infinitesimal triangles asserted</text>
<text x="686.2" y="133.0" font-size="12" fill="#2c6e31">3 Lean result(s)</text>
<text x="26" y="453" font-size="12" font-weight="bold">Stages</text>
<rect x="36" y="459" width="16" height="14" fill="#e8d5b7" stroke="#666"/>
<text x="58" y="471" font-size="11">NATP00090 (6 nodes)</text>
<rect x="36" y="485" width="16" height="14" fill="#f7e6c4" stroke="#666"/>
<text x="58" y="497" font-size="11">proposed1694 (4 nodes)</text>
<path d="M 266 466 h 40" stroke="#33475b"/>
<text x="316" y="470" font-size="11">explicit dependency</text>
<path d="M 266 492 h 40" stroke="#33475b" stroke-dasharray="6 4"/>
<text x="316" y="496" font-size="11">implicit dependency</text>
<path d="M 266 518 h 40" stroke="#33475b" stroke-dasharray="2 4"/>
<text x="316" y="522" font-size="11">editorial interpretation / comparison</text>
<path d="M 266 544 h 40" stroke="#33475b" stroke-dasharray="10 3 2 3"/>
<text x="316" y="548" font-size="11">modern reconstruction</text>
<text x="266" y="577" font-size="11">green border = attached Lean references</text>
<text x="266" y="593" font-size="11">references do not certify the historical claim</text>
</svg>