<?xml version="1.0" encoding="utf-8" standalone="no"?>
<!DOCTYPE svg PUBLIC "-//W3C//DTD SVG 1.1//EN"
  "http://www.w3.org/Graphics/SVG/1.1/DTD/svg11.dtd">
<svg xmlns:xlink="http://www.w3.org/1999/xlink" width="648pt" height="331.2pt" viewBox="0 0 648 331.2" xmlns="http://www.w3.org/2000/svg" version="1.1">
 <metadata>
  <rdf:RDF xmlns:dc="http://purl.org/dc/elements/1.1/" xmlns:cc="http://creativecommons.org/ns#" xmlns:rdf="http://www.w3.org/1999/02/22-rdf-syntax-ns#">
   <cc:Work>
    <dc:type rdf:resource="http://purl.org/dc/dcmitype/StillImage"/>
    <dc:format>image/svg+xml</dc:format>
    <dc:creator>
     <cc:Agent>
      <dc:title>Matplotlib v3.10.7+dfsg1, https://matplotlib.org/</dc:title>
     </cc:Agent>
    </dc:creator>
   </cc:Work>
  </rdf:RDF>
 </metadata>
 <defs>
  <style type="text/css">*{stroke-linejoin: round; stroke-linecap: butt}</style>
 </defs>
 <g id="figure_1">
  <g id="patch_1">
   <path d="M 0 331.2
L 648 331.2
L 648 0
L 0 0
z
" style="fill: #1a1a19"/>
  </g>
  <g id="axes_1">
   <g id="patch_2">
    <path d="M 57.44 289.24
L 637.2 289.24
L 637.2 33.44
L 57.44 33.44
z
" style="fill: #1a1a19"/>
   </g>
   <g id="matplotlib.axis_1">
    <g id="xtick_1">
     <g id="line2d_1">
      <path d="M 60.697079 289.24
L 60.697079 33.44
" clip-path="url(#pd8de7f619e)" style="fill: none; stroke: #2c2c2a; stroke-width: 0.8; stroke-linecap: square"/>
     </g>
     <g id="line2d_2">
      <defs>
       <path id="m02e6627c96" d="M 0 0
L 0 3.5
" style="stroke: #898781; stroke-width: 0.8"/>
      </defs>
      <g>
       <use xlink:href="#m02e6627c96" x="60.697079" y="289.24" style="fill: #898781; stroke: #898781; stroke-width: 0.8"/>
      </g>
     </g>
     <g id="text_1">
      <text style="font-size: 10px; font-family: 'Inter', 'Helvetica Neue', 'Arial', 'DejaVu Sans', sans-serif; text-anchor: middle; fill: #898781" x="60.697079" y="303.838437" transform="rotate(-0 60.697079 303.838437)">21–22 Sep</text>
     </g>
    </g>
    <g id="xtick_2">
     <g id="line2d_3">
      <path d="M 321.263371 289.24
L 321.263371 33.44
" clip-path="url(#pd8de7f619e)" style="fill: none; stroke: #2c2c2a; stroke-width: 0.8; stroke-linecap: square"/>
     </g>
     <g id="line2d_4">
      <g>
       <use xlink:href="#m02e6627c96" x="321.263371" y="289.24" style="fill: #898781; stroke: #898781; stroke-width: 0.8"/>
      </g>
     </g>
     <g id="text_2">
      <text style="font-size: 10px; font-family: 'Inter', 'Helvetica Neue', 'Arial', 'DejaVu Sans', sans-serif; text-anchor: middle; fill: #898781" x="321.263371" y="303.838437" transform="rotate(-0 321.263371 303.838437)">28–29 Sep</text>
     </g>
    </g>
    <g id="xtick_3">
     <g id="line2d_5">
      <path d="M 366.862472 289.24
L 366.862472 33.44
" clip-path="url(#pd8de7f619e)" style="fill: none; stroke: #2c2c2a; stroke-width: 0.8; stroke-linecap: square"/>
     </g>
     <g id="line2d_6">
      <g>
       <use xlink:href="#m02e6627c96" x="366.862472" y="289.24" style="fill: #898781; stroke: #898781; stroke-width: 0.8"/>
      </g>
     </g>
     <g id="text_3">
      <text style="font-size: 10px; font-family: 'Inter', 'Helvetica Neue', 'Arial', 'DejaVu Sans', sans-serif; text-anchor: middle; fill: #898781" x="366.862472" y="303.838437" transform="rotate(-0 366.862472 303.838437)">3–5 Oct</text>
     </g>
    </g>
    <g id="text_4">
     <text style="font-size: 10px; font-family: 'Inter', 'Helvetica Neue', 'Arial', 'DejaVu Sans', sans-serif; text-anchor: middle; fill: #c3c2b7" x="347.32" y="317.516562" transform="rotate(-0 347.32 317.516562)">Commit, oldest first (ticks mark the first commit of each work session)</text>
    </g>
   </g>
   <g id="matplotlib.axis_2">
    <g id="ytick_1">
     <g id="line2d_7">
      <path d="M 57.44 289.24
L 637.2 289.24
" clip-path="url(#pd8de7f619e)" style="fill: none; stroke: #2c2c2a; stroke-width: 0.8; stroke-linecap: square"/>
     </g>
     <g id="line2d_8">
      <defs>
       <path id="mba09e6026b" d="M 0 0
L -3.5 0
" style="stroke: #898781; stroke-width: 0.8"/>
      </defs>
      <g>
       <use xlink:href="#mba09e6026b" x="57.44" y="289.24" style="fill: #898781; stroke: #898781; stroke-width: 0.8"/>
      </g>
     </g>
     <g id="text_5">
      <text style="font-size: 10px; font-family: 'Inter', 'Helvetica Neue', 'Arial', 'DejaVu Sans', sans-serif; text-anchor: end; fill: #898781" x="50.44" y="293.039219" transform="rotate(-0 50.44 293.039219)">0</text>
     </g>
    </g>
    <g id="ytick_2">
     <g id="line2d_9">
      <path d="M 57.44 253.701116
L 637.2 253.701116
" clip-path="url(#pd8de7f619e)" style="fill: none; stroke: #2c2c2a; stroke-width: 0.8; stroke-linecap: square"/>
     </g>
     <g id="line2d_10">
      <g>
       <use xlink:href="#mba09e6026b" x="57.44" y="253.701116" style="fill: #898781; stroke: #898781; stroke-width: 0.8"/>
      </g>
     </g>
     <g id="text_6">
      <text style="font-size: 10px; font-family: 'Inter', 'Helvetica Neue', 'Arial', 'DejaVu Sans', sans-serif; text-anchor: end; fill: #898781" x="50.44" y="257.500335" transform="rotate(-0 50.44 257.500335)">200</text>
     </g>
    </g>
    <g id="ytick_3">
     <g id="line2d_11">
      <path d="M 57.44 218.162233
L 637.2 218.162233
" clip-path="url(#pd8de7f619e)" style="fill: none; stroke: #2c2c2a; stroke-width: 0.8; stroke-linecap: square"/>
     </g>
     <g id="line2d_12">
      <g>
       <use xlink:href="#mba09e6026b" x="57.44" y="218.162233" style="fill: #898781; stroke: #898781; stroke-width: 0.8"/>
      </g>
     </g>
     <g id="text_7">
      <text style="font-size: 10px; font-family: 'Inter', 'Helvetica Neue', 'Arial', 'DejaVu Sans', sans-serif; text-anchor: end; fill: #898781" x="50.44" y="221.961451" transform="rotate(-0 50.44 221.961451)">400</text>
     </g>
    </g>
    <g id="ytick_4">
     <g id="line2d_13">
      <path d="M 57.44 182.623349
L 637.2 182.623349
" clip-path="url(#pd8de7f619e)" style="fill: none; stroke: #2c2c2a; stroke-width: 0.8; stroke-linecap: square"/>
     </g>
     <g id="line2d_14">
      <g>
       <use xlink:href="#mba09e6026b" x="57.44" y="182.623349" style="fill: #898781; stroke: #898781; stroke-width: 0.8"/>
      </g>
     </g>
     <g id="text_8">
      <text style="font-size: 10px; font-family: 'Inter', 'Helvetica Neue', 'Arial', 'DejaVu Sans', sans-serif; text-anchor: end; fill: #898781" x="50.44" y="186.422568" transform="rotate(-0 50.44 186.422568)">600</text>
     </g>
    </g>
    <g id="ytick_5">
     <g id="line2d_15">
      <path d="M 57.44 147.084465
L 637.2 147.084465
" clip-path="url(#pd8de7f619e)" style="fill: none; stroke: #2c2c2a; stroke-width: 0.8; stroke-linecap: square"/>
     </g>
     <g id="line2d_16">
      <g>
       <use xlink:href="#mba09e6026b" x="57.44" y="147.084465" style="fill: #898781; stroke: #898781; stroke-width: 0.8"/>
      </g>
     </g>
     <g id="text_9">
      <text style="font-size: 10px; font-family: 'Inter', 'Helvetica Neue', 'Arial', 'DejaVu Sans', sans-serif; text-anchor: end; fill: #898781" x="50.44" y="150.883684" transform="rotate(-0 50.44 150.883684)">800</text>
     </g>
    </g>
    <g id="ytick_6">
     <g id="line2d_17">
      <path d="M 57.44 111.545582
L 637.2 111.545582
" clip-path="url(#pd8de7f619e)" style="fill: none; stroke: #2c2c2a; stroke-width: 0.8; stroke-linecap: square"/>
     </g>
     <g id="line2d_18">
      <g>
       <use xlink:href="#mba09e6026b" x="57.44" y="111.545582" style="fill: #898781; stroke: #898781; stroke-width: 0.8"/>
      </g>
     </g>
     <g id="text_10">
      <text style="font-size: 10px; font-family: 'Inter', 'Helvetica Neue', 'Arial', 'DejaVu Sans', sans-serif; text-anchor: end; fill: #898781" x="50.44" y="115.3448" transform="rotate(-0 50.44 115.3448)">1000</text>
     </g>
    </g>
    <g id="ytick_7">
     <g id="line2d_19">
      <path d="M 57.44 76.006698
L 637.2 76.006698
" clip-path="url(#pd8de7f619e)" style="fill: none; stroke: #2c2c2a; stroke-width: 0.8; stroke-linecap: square"/>
     </g>
     <g id="line2d_20">
      <g>
       <use xlink:href="#mba09e6026b" x="57.44" y="76.006698" style="fill: #898781; stroke: #898781; stroke-width: 0.8"/>
      </g>
     </g>
     <g id="text_11">
      <text style="font-size: 10px; font-family: 'Inter', 'Helvetica Neue', 'Arial', 'DejaVu Sans', sans-serif; text-anchor: end; fill: #898781" x="50.44" y="79.805917" transform="rotate(-0 50.44 79.805917)">1200</text>
     </g>
    </g>
    <g id="ytick_8">
     <g id="line2d_21">
      <path d="M 57.44 40.467814
L 637.2 40.467814
" clip-path="url(#pd8de7f619e)" style="fill: none; stroke: #2c2c2a; stroke-width: 0.8; stroke-linecap: square"/>
     </g>
     <g id="line2d_22">
      <g>
       <use xlink:href="#mba09e6026b" x="57.44" y="40.467814" style="fill: #898781; stroke: #898781; stroke-width: 0.8"/>
      </g>
     </g>
     <g id="text_12">
      <text style="font-size: 10px; font-family: 'Inter', 'Helvetica Neue', 'Arial', 'DejaVu Sans', sans-serif; text-anchor: end; fill: #898781" x="50.44" y="44.267033" transform="rotate(-0 50.44 44.267033)">1400</text>
     </g>
    </g>
    <g id="text_13">
     <text style="font-size: 10px; font-family: 'Inter', 'Helvetica Neue', 'Arial', 'DejaVu Sans', sans-serif; text-anchor: middle; fill: #c3c2b7" x="18.910312" y="161.34" transform="rotate(-90 18.910312 161.34)">Theorems at commit</text>
    </g>
   </g>
   <g id="FillBetweenPolyCollection_1">
    <defs>
     <path id="m6e80392cd4" d="M 60.697079 -42.315389
L 60.697079 -41.96
L 67.211236 -41.96
L 73.725393 -41.96
L 80.239551 -41.96
L 86.753708 -41.96
L 93.267865 -41.96
L 99.782022 -41.96
L 106.29618 -41.96
L 112.810337 -41.96
L 119.324494 -41.96
L 125.838652 -41.96
L 132.352809 -41.96
L 138.866966 -41.96
L 145.381124 -41.96
L 151.895281 -41.96
L 158.409438 -41.96
L 164.923596 -41.96
L 171.437753 -41.96
L 177.95191 -41.96
L 184.466067 -41.96
L 190.980225 -41.96
L 197.494382 -41.96
L 204.008539 -41.96
L 210.522697 -41.96
L 217.036854 -41.96
L 223.551011 -41.96
L 230.065169 -41.96
L 236.579326 -41.96
L 243.093483 -41.96
L 249.60764 -41.96
L 256.121798 -41.96
L 262.635955 -41.96
L 269.150112 -41.96
L 275.66427 -41.96
L 282.178427 -41.96
L 288.692584 -41.96
L 295.206742 -41.96
L 301.720899 -41.96
L 308.235056 -41.96
L 314.749213 -41.96
L 321.263371 -41.96
L 327.777528 -41.96
L 334.291685 -41.96
L 340.805843 -41.96
L 347.32 -41.96
L 353.834157 -41.96
L 360.348315 -41.96
L 366.862472 -41.96
L 373.376629 -41.96
L 379.890787 -41.96
L 386.404944 -41.96
L 392.919101 -41.96
L 399.433258 -41.96
L 405.947416 -41.96
L 412.461573 -41.96
L 418.97573 -41.96
L 425.489888 -41.96
L 432.004045 -41.96
L 438.518202 -41.96
L 445.03236 -41.96
L 451.546517 -41.96
L 458.060674 -41.96
L 464.574831 -41.96
L 471.088989 -41.96
L 477.603146 -41.96
L 484.117303 -41.96
L 490.631461 -41.96
L 497.145618 -41.96
L 503.659775 -41.96
L 510.173933 -41.96
L 516.68809 -41.96
L 523.202247 -41.96
L 529.716404 -41.96
L 536.230562 -41.96
L 542.744719 -41.96
L 549.258876 -41.96
L 555.773034 -41.96
L 562.287191 -41.96
L 568.801348 -41.96
L 575.315506 -41.96
L 581.829663 -41.96
L 588.34382 -41.96
L 594.857978 -41.96
L 601.372135 -41.96
L 607.886292 -41.96
L 614.400449 -41.96
L 620.914607 -41.96
L 627.428764 -41.96
L 633.942921 -41.96
L 633.942921 -63.638719
L 633.942921 -63.638719
L 627.428764 -63.638719
L 620.914607 -63.638719
L 614.400449 -63.638719
L 607.886292 -63.638719
L 601.372135 -63.638719
L 594.857978 -62.927941
L 588.34382 -62.750247
L 581.829663 -62.750247
L 575.315506 -62.572553
L 568.801348 -62.394858
L 562.287191 -62.217164
L 555.773034 -62.217164
L 549.258876 -62.217164
L 542.744719 -62.039469
L 536.230562 -62.039469
L 529.716404 -62.039469
L 523.202247 -62.039469
L 516.68809 -62.039469
L 510.173933 -62.039469
L 503.659775 -62.039469
L 497.145618 -62.039469
L 490.631461 -60.262525
L 484.117303 -60.262525
L 477.603146 -60.262525
L 471.088989 -60.262525
L 464.574831 -60.262525
L 458.060674 -60.262525
L 451.546517 -60.262525
L 445.03236 -60.262525
L 438.518202 -60.262525
L 432.004045 -60.262525
L 425.489888 -60.262525
L 418.97573 -60.262525
L 412.461573 -60.262525
L 405.947416 -60.262525
L 399.433258 -60.262525
L 392.919101 -60.262525
L 386.404944 -60.262525
L 379.890787 -57.774803
L 373.376629 -57.774803
L 366.862472 -54.04322
L 360.348315 -54.04322
L 353.834157 -54.04322
L 347.32 -54.04322
L 340.805843 -54.04322
L 334.291685 -54.04322
L 327.777528 -54.04322
L 321.263371 -54.04322
L 314.749213 -54.04322
L 308.235056 -54.04322
L 301.720899 -54.04322
L 295.206742 -54.04322
L 288.692584 -54.04322
L 282.178427 -54.04322
L 275.66427 -54.04322
L 269.150112 -54.04322
L 262.635955 -54.04322
L 256.121798 -54.04322
L 249.60764 -54.04322
L 243.093483 -54.04322
L 236.579326 -54.04322
L 230.065169 -54.04322
L 223.551011 -54.04322
L 217.036854 -54.04322
L 210.522697 -54.04322
L 204.008539 -54.04322
L 197.494382 -54.04322
L 190.980225 -54.04322
L 184.466067 -54.04322
L 177.95191 -54.04322
L 171.437753 -54.04322
L 164.923596 -54.04322
L 158.409438 -54.04322
L 151.895281 -54.04322
L 145.381124 -54.04322
L 138.866966 -54.04322
L 132.352809 -54.04322
L 125.838652 -54.04322
L 119.324494 -54.04322
L 112.810337 -54.04322
L 106.29618 -51.733193
L 99.782022 -49.60086
L 93.267865 -47.290833
L 86.753708 -42.848472
L 80.239551 -42.315389
L 73.725393 -42.315389
L 67.211236 -42.315389
L 60.697079 -42.315389
z
" style="stroke: #1a1a19; stroke-opacity: 0.9; stroke-width: 1.2"/>
    </defs>
    <g clip-path="url(#pd8de7f619e)">
     <use xlink:href="#m6e80392cd4" x="0" y="331.2" style="fill: #3987e5; fill-opacity: 0.9; stroke: #1a1a19; stroke-opacity: 0.9; stroke-width: 1.2"/>
    </g>
   </g>
   <g id="FillBetweenPolyCollection_2">
    <defs>
     <path id="m7bfa3e97ab" d="M 60.697079 -42.315389
L 60.697079 -42.315389
L 67.211236 -42.315389
L 73.725393 -42.315389
L 80.239551 -42.315389
L 86.753708 -42.848472
L 93.267865 -47.290833
L 99.782022 -49.60086
L 106.29618 -51.733193
L 112.810337 -54.04322
L 119.324494 -54.04322
L 125.838652 -54.04322
L 132.352809 -54.04322
L 138.866966 -54.04322
L 145.381124 -54.04322
L 151.895281 -54.04322
L 158.409438 -54.04322
L 164.923596 -54.04322
L 171.437753 -54.04322
L 177.95191 -54.04322
L 184.466067 -54.04322
L 190.980225 -54.04322
L 197.494382 -54.04322
L 204.008539 -54.04322
L 210.522697 -54.04322
L 217.036854 -54.04322
L 223.551011 -54.04322
L 230.065169 -54.04322
L 236.579326 -54.04322
L 243.093483 -54.04322
L 249.60764 -54.04322
L 256.121798 -54.04322
L 262.635955 -54.04322
L 269.150112 -54.04322
L 275.66427 -54.04322
L 282.178427 -54.04322
L 288.692584 -54.04322
L 295.206742 -54.04322
L 301.720899 -54.04322
L 308.235056 -54.04322
L 314.749213 -54.04322
L 321.263371 -54.04322
L 327.777528 -54.04322
L 334.291685 -54.04322
L 340.805843 -54.04322
L 347.32 -54.04322
L 353.834157 -54.04322
L 360.348315 -54.04322
L 366.862472 -54.04322
L 373.376629 -57.774803
L 379.890787 -57.774803
L 386.404944 -60.262525
L 392.919101 -60.262525
L 399.433258 -60.262525
L 405.947416 -60.262525
L 412.461573 -60.262525
L 418.97573 -60.262525
L 425.489888 -60.262525
L 432.004045 -60.262525
L 438.518202 -60.262525
L 445.03236 -60.262525
L 451.546517 -60.262525
L 458.060674 -60.262525
L 464.574831 -60.262525
L 471.088989 -60.262525
L 477.603146 -60.262525
L 484.117303 -60.262525
L 490.631461 -60.262525
L 497.145618 -62.039469
L 503.659775 -62.039469
L 510.173933 -62.039469
L 516.68809 -62.039469
L 523.202247 -62.039469
L 529.716404 -62.039469
L 536.230562 -62.039469
L 542.744719 -62.039469
L 549.258876 -62.217164
L 555.773034 -62.217164
L 562.287191 -62.217164
L 568.801348 -62.394858
L 575.315506 -62.572553
L 581.829663 -62.750247
L 588.34382 -62.750247
L 594.857978 -62.927941
L 601.372135 -63.638719
L 607.886292 -63.638719
L 614.400449 -63.638719
L 620.914607 -63.638719
L 627.428764 -63.638719
L 633.942921 -63.638719
L 633.942921 -89.759799
L 633.942921 -89.759799
L 627.428764 -89.759799
L 620.914607 -89.582104
L 614.400449 -89.582104
L 607.886292 -89.582104
L 601.372135 -89.582104
L 594.857978 -88.871326
L 588.34382 -88.160549
L 581.829663 -88.160549
L 575.315506 -87.982854
L 568.801348 -87.80516
L 562.287191 -87.627466
L 555.773034 -87.627466
L 549.258876 -87.627466
L 542.744719 -87.449771
L 536.230562 -87.449771
L 529.716404 -87.449771
L 523.202247 -87.449771
L 516.68809 -87.449771
L 510.173933 -87.449771
L 503.659775 -87.449771
L 497.145618 -87.449771
L 490.631461 -89.759799
L 484.117303 -89.759799
L 477.603146 -89.759799
L 471.088989 -89.759799
L 464.574831 -89.759799
L 458.060674 -89.759799
L 451.546517 -89.759799
L 445.03236 -89.759799
L 438.518202 -89.759799
L 432.004045 -89.759799
L 425.489888 -89.759799
L 418.97573 -89.759799
L 412.461573 -89.759799
L 405.947416 -89.759799
L 399.433258 -89.759799
L 392.919101 -89.759799
L 386.404944 -89.759799
L 379.890787 -87.272077
L 373.376629 -87.272077
L 366.862472 -83.540494
L 360.348315 -83.540494
L 353.834157 -83.540494
L 347.32 -83.540494
L 340.805843 -83.540494
L 334.291685 -83.540494
L 327.777528 -80.519689
L 321.263371 -80.519689
L 314.749213 -80.519689
L 308.235056 -80.519689
L 301.720899 -80.519689
L 295.206742 -80.519689
L 288.692584 -80.519689
L 282.178427 -80.519689
L 275.66427 -80.519689
L 269.150112 -80.519689
L 262.635955 -80.519689
L 256.121798 -80.519689
L 249.60764 -80.519689
L 243.093483 -80.341994
L 236.579326 -79.986606
L 230.065169 -79.808911
L 223.551011 -79.808911
L 217.036854 -78.209661
L 210.522697 -77.143495
L 204.008539 -77.143495
L 197.494382 -74.655773
L 190.980225 -72.345746
L 184.466067 -71.279579
L 177.95191 -71.279579
L 171.437753 -66.659524
L 164.923596 -66.659524
L 158.409438 -66.659524
L 151.895281 -62.217164
L 145.381124 -59.196359
L 138.866966 -59.196359
L 132.352809 -57.774803
L 125.838652 -54.04322
L 119.324494 -54.04322
L 112.810337 -54.04322
L 106.29618 -51.733193
L 99.782022 -49.60086
L 93.267865 -47.290833
L 86.753708 -42.848472
L 80.239551 -42.315389
L 73.725393 -42.315389
L 67.211236 -42.315389
L 60.697079 -42.315389
z
" style="stroke: #1a1a19; stroke-opacity: 0.9; stroke-width: 1.2"/>
    </defs>
    <g clip-path="url(#pd8de7f619e)">
     <use xlink:href="#m7bfa3e97ab" x="0" y="331.2" style="fill: #d95926; fill-opacity: 0.9; stroke: #1a1a19; stroke-opacity: 0.9; stroke-width: 1.2"/>
    </g>
   </g>
   <g id="FillBetweenPolyCollection_3">
    <defs>
     <path id="ma0184eddf8" d="M 60.697079 -42.315389
L 60.697079 -42.315389
L 67.211236 -42.315389
L 73.725393 -42.315389
L 80.239551 -42.315389
L 86.753708 -42.848472
L 93.267865 -47.290833
L 99.782022 -49.60086
L 106.29618 -51.733193
L 112.810337 -54.04322
L 119.324494 -54.04322
L 125.838652 -54.04322
L 132.352809 -57.774803
L 138.866966 -59.196359
L 145.381124 -59.196359
L 151.895281 -62.217164
L 158.409438 -66.659524
L 164.923596 -66.659524
L 171.437753 -66.659524
L 177.95191 -71.279579
L 184.466067 -71.279579
L 190.980225 -72.345746
L 197.494382 -74.655773
L 204.008539 -77.143495
L 210.522697 -77.143495
L 217.036854 -78.209661
L 223.551011 -79.808911
L 230.065169 -79.808911
L 236.579326 -79.986606
L 243.093483 -80.341994
L 249.60764 -80.519689
L 256.121798 -80.519689
L 262.635955 -80.519689
L 269.150112 -80.519689
L 275.66427 -80.519689
L 282.178427 -80.519689
L 288.692584 -80.519689
L 295.206742 -80.519689
L 301.720899 -80.519689
L 308.235056 -80.519689
L 314.749213 -80.519689
L 321.263371 -80.519689
L 327.777528 -80.519689
L 334.291685 -83.540494
L 340.805843 -83.540494
L 347.32 -83.540494
L 353.834157 -83.540494
L 360.348315 -83.540494
L 366.862472 -83.540494
L 373.376629 -87.272077
L 379.890787 -87.272077
L 386.404944 -89.759799
L 392.919101 -89.759799
L 399.433258 -89.759799
L 405.947416 -89.759799
L 412.461573 -89.759799
L 418.97573 -89.759799
L 425.489888 -89.759799
L 432.004045 -89.759799
L 438.518202 -89.759799
L 445.03236 -89.759799
L 451.546517 -89.759799
L 458.060674 -89.759799
L 464.574831 -89.759799
L 471.088989 -89.759799
L 477.603146 -89.759799
L 484.117303 -89.759799
L 490.631461 -89.759799
L 497.145618 -87.449771
L 503.659775 -87.449771
L 510.173933 -87.449771
L 516.68809 -87.449771
L 523.202247 -87.449771
L 529.716404 -87.449771
L 536.230562 -87.449771
L 542.744719 -87.449771
L 549.258876 -87.627466
L 555.773034 -87.627466
L 562.287191 -87.627466
L 568.801348 -87.80516
L 575.315506 -87.982854
L 581.829663 -88.160549
L 588.34382 -88.160549
L 594.857978 -88.871326
L 601.372135 -89.582104
L 607.886292 -89.582104
L 614.400449 -89.582104
L 620.914607 -89.582104
L 627.428764 -89.759799
L 633.942921 -89.759799
L 633.942921 -95.090631
L 633.942921 -95.090631
L 627.428764 -95.090631
L 620.914607 -94.912937
L 614.400449 -94.912937
L 607.886292 -94.912937
L 601.372135 -94.912937
L 594.857978 -94.202159
L 588.34382 -93.491381
L 581.829663 -93.491381
L 575.315506 -93.313687
L 568.801348 -93.135992
L 562.287191 -92.958298
L 555.773034 -92.958298
L 549.258876 -92.958298
L 542.744719 -92.780604
L 536.230562 -92.780604
L 529.716404 -92.780604
L 523.202247 -92.780604
L 516.68809 -92.780604
L 510.173933 -92.780604
L 503.659775 -92.780604
L 497.145618 -92.780604
L 490.631461 -95.090631
L 484.117303 -95.090631
L 477.603146 -95.090631
L 471.088989 -95.090631
L 464.574831 -95.090631
L 458.060674 -95.090631
L 451.546517 -95.090631
L 445.03236 -95.090631
L 438.518202 -95.090631
L 432.004045 -95.090631
L 425.489888 -95.090631
L 418.97573 -95.090631
L 412.461573 -95.090631
L 405.947416 -95.090631
L 399.433258 -95.090631
L 392.919101 -95.090631
L 386.404944 -95.090631
L 379.890787 -92.602909
L 373.376629 -92.602909
L 366.862472 -88.871326
L 360.348315 -88.693632
L 353.834157 -88.693632
L 347.32 -88.693632
L 340.805843 -88.693632
L 334.291685 -88.515938
L 327.777528 -85.495133
L 321.263371 -85.495133
L 314.749213 -82.652022
L 308.235056 -82.652022
L 301.720899 -82.652022
L 295.206742 -82.652022
L 288.692584 -82.652022
L 282.178427 -82.652022
L 275.66427 -82.652022
L 269.150112 -82.652022
L 262.635955 -82.652022
L 256.121798 -82.652022
L 249.60764 -82.296633
L 243.093483 -80.341994
L 236.579326 -79.986606
L 230.065169 -79.808911
L 223.551011 -79.808911
L 217.036854 -78.209661
L 210.522697 -77.143495
L 204.008539 -77.143495
L 197.494382 -74.655773
L 190.980225 -72.345746
L 184.466067 -71.279579
L 177.95191 -71.279579
L 171.437753 -66.659524
L 164.923596 -66.659524
L 158.409438 -66.659524
L 151.895281 -62.217164
L 145.381124 -59.196359
L 138.866966 -59.196359
L 132.352809 -57.774803
L 125.838652 -54.04322
L 119.324494 -54.04322
L 112.810337 -54.04322
L 106.29618 -51.733193
L 99.782022 -49.60086
L 93.267865 -47.290833
L 86.753708 -42.848472
L 80.239551 -42.315389
L 73.725393 -42.315389
L 67.211236 -42.315389
L 60.697079 -42.315389
z
" style="stroke: #1a1a19; stroke-opacity: 0.9; stroke-width: 1.2"/>
    </defs>
    <g clip-path="url(#pd8de7f619e)">
     <use xlink:href="#ma0184eddf8" x="0" y="331.2" style="fill: #199e70; fill-opacity: 0.9; stroke: #1a1a19; stroke-opacity: 0.9; stroke-width: 1.2"/>
    </g>
   </g>
   <g id="FillBetweenPolyCollection_4">
    <defs>
     <path id="md0db20761a" d="M 60.697079 -42.315389
L 60.697079 -42.315389
L 67.211236 -42.315389
L 73.725393 -42.315389
L 80.239551 -42.315389
L 86.753708 -42.848472
L 93.267865 -47.290833
L 99.782022 -49.60086
L 106.29618 -51.733193
L 112.810337 -54.04322
L 119.324494 -54.04322
L 125.838652 -54.04322
L 132.352809 -57.774803
L 138.866966 -59.196359
L 145.381124 -59.196359
L 151.895281 -62.217164
L 158.409438 -66.659524
L 164.923596 -66.659524
L 171.437753 -66.659524
L 177.95191 -71.279579
L 184.466067 -71.279579
L 190.980225 -72.345746
L 197.494382 -74.655773
L 204.008539 -77.143495
L 210.522697 -77.143495
L 217.036854 -78.209661
L 223.551011 -79.808911
L 230.065169 -79.808911
L 236.579326 -79.986606
L 243.093483 -80.341994
L 249.60764 -82.296633
L 256.121798 -82.652022
L 262.635955 -82.652022
L 269.150112 -82.652022
L 275.66427 -82.652022
L 282.178427 -82.652022
L 288.692584 -82.652022
L 295.206742 -82.652022
L 301.720899 -82.652022
L 308.235056 -82.652022
L 314.749213 -82.652022
L 321.263371 -85.495133
L 327.777528 -85.495133
L 334.291685 -88.515938
L 340.805843 -88.693632
L 347.32 -88.693632
L 353.834157 -88.693632
L 360.348315 -88.693632
L 366.862472 -88.871326
L 373.376629 -92.602909
L 379.890787 -92.602909
L 386.404944 -95.090631
L 392.919101 -95.090631
L 399.433258 -95.090631
L 405.947416 -95.090631
L 412.461573 -95.090631
L 418.97573 -95.090631
L 425.489888 -95.090631
L 432.004045 -95.090631
L 438.518202 -95.090631
L 445.03236 -95.090631
L 451.546517 -95.090631
L 458.060674 -95.090631
L 464.574831 -95.090631
L 471.088989 -95.090631
L 477.603146 -95.090631
L 484.117303 -95.090631
L 490.631461 -95.090631
L 497.145618 -92.780604
L 503.659775 -92.780604
L 510.173933 -92.780604
L 516.68809 -92.780604
L 523.202247 -92.780604
L 529.716404 -92.780604
L 536.230562 -92.780604
L 542.744719 -92.780604
L 549.258876 -92.958298
L 555.773034 -92.958298
L 562.287191 -92.958298
L 568.801348 -93.135992
L 575.315506 -93.313687
L 581.829663 -93.491381
L 588.34382 -93.491381
L 594.857978 -94.202159
L 601.372135 -94.912937
L 607.886292 -94.912937
L 614.400449 -94.912937
L 620.914607 -94.912937
L 627.428764 -95.090631
L 633.942921 -95.090631
L 633.942921 -281.314382
L 633.942921 -281.314382
L 627.428764 -277.938188
L 620.914607 -274.206605
L 614.400449 -267.098828
L 607.886292 -259.813357
L 601.372135 -251.461719
L 594.857978 -240.266971
L 588.34382 -228.539139
L 581.829663 -222.675224
L 575.315506 -212.724336
L 568.801348 -205.083476
L 562.287191 -199.574949
L 555.773034 -199.574949
L 549.258876 -199.574949
L 542.744719 -198.508783
L 536.230562 -186.780951
L 529.716404 -179.673174
L 523.202247 -179.673174
L 516.68809 -179.673174
L 510.173933 -179.673174
L 503.659775 -179.673174
L 497.145618 -179.673174
L 490.631461 -188.557895
L 484.117303 -188.557895
L 477.603146 -188.557895
L 471.088989 -181.983202
L 464.574831 -170.966148
L 458.060674 -170.966148
L 451.546517 -163.502982
L 445.03236 -156.928289
L 438.518202 -150.886678
L 432.004045 -143.601207
L 425.489888 -143.601207
L 418.97573 -133.117237
L 412.461573 -130.096432
L 405.947416 -121.211711
L 399.433258 -117.835517
L 392.919101 -110.372351
L 386.404944 -105.396907
L 379.890787 -102.731491
L 373.376629 -100.243769
L 366.862472 -95.44602
L 360.348315 -95.268326
L 353.834157 -95.268326
L 347.32 -95.268326
L 340.805843 -95.268326
L 334.291685 -95.090631
L 327.777528 -92.069826
L 321.263371 -92.069826
L 314.749213 -89.226715
L 308.235056 -89.226715
L 301.720899 -89.226715
L 295.206742 -89.226715
L 288.692584 -87.627466
L 282.178427 -86.916688
L 275.66427 -86.916688
L 269.150112 -86.916688
L 262.635955 -86.916688
L 256.121798 -82.652022
L 249.60764 -82.296633
L 243.093483 -80.341994
L 236.579326 -79.986606
L 230.065169 -79.808911
L 223.551011 -79.808911
L 217.036854 -78.209661
L 210.522697 -77.143495
L 204.008539 -77.143495
L 197.494382 -74.655773
L 190.980225 -72.345746
L 184.466067 -71.279579
L 177.95191 -71.279579
L 171.437753 -66.659524
L 164.923596 -66.659524
L 158.409438 -66.659524
L 151.895281 -62.217164
L 145.381124 -59.196359
L 138.866966 -59.196359
L 132.352809 -57.774803
L 125.838652 -54.04322
L 119.324494 -54.04322
L 112.810337 -54.04322
L 106.29618 -51.733193
L 99.782022 -49.60086
L 93.267865 -47.290833
L 86.753708 -42.848472
L 80.239551 -42.315389
L 73.725393 -42.315389
L 67.211236 -42.315389
L 60.697079 -42.315389
z
" style="stroke: #1a1a19; stroke-opacity: 0.9; stroke-width: 1.2"/>
    </defs>
    <g clip-path="url(#pd8de7f619e)">
     <use xlink:href="#md0db20761a" x="0" y="331.2" style="fill: #c98500; fill-opacity: 0.9; stroke: #1a1a19; stroke-opacity: 0.9; stroke-width: 1.2"/>
    </g>
   </g>
   <g id="FillBetweenPolyCollection_5">
    <defs>
     <path id="mde03a17ac5" d="M 60.697079 -42.315389
L 60.697079 -42.315389
L 67.211236 -42.315389
L 73.725393 -42.315389
L 80.239551 -42.315389
L 86.753708 -42.848472
L 93.267865 -47.290833
L 99.782022 -49.60086
L 106.29618 -51.733193
L 112.810337 -54.04322
L 119.324494 -54.04322
L 125.838652 -54.04322
L 132.352809 -57.774803
L 138.866966 -59.196359
L 145.381124 -59.196359
L 151.895281 -62.217164
L 158.409438 -66.659524
L 164.923596 -66.659524
L 171.437753 -66.659524
L 177.95191 -71.279579
L 184.466067 -71.279579
L 190.980225 -72.345746
L 197.494382 -74.655773
L 204.008539 -77.143495
L 210.522697 -77.143495
L 217.036854 -78.209661
L 223.551011 -79.808911
L 230.065169 -79.808911
L 236.579326 -79.986606
L 243.093483 -80.341994
L 249.60764 -82.296633
L 256.121798 -82.652022
L 262.635955 -86.916688
L 269.150112 -86.916688
L 275.66427 -86.916688
L 282.178427 -86.916688
L 288.692584 -87.627466
L 295.206742 -89.226715
L 301.720899 -89.226715
L 308.235056 -89.226715
L 314.749213 -89.226715
L 321.263371 -92.069826
L 327.777528 -92.069826
L 334.291685 -95.090631
L 340.805843 -95.268326
L 347.32 -95.268326
L 353.834157 -95.268326
L 360.348315 -95.268326
L 366.862472 -95.44602
L 373.376629 -100.243769
L 379.890787 -102.731491
L 386.404944 -105.396907
L 392.919101 -110.372351
L 399.433258 -117.835517
L 405.947416 -121.211711
L 412.461573 -130.096432
L 418.97573 -133.117237
L 425.489888 -143.601207
L 432.004045 -143.601207
L 438.518202 -150.886678
L 445.03236 -156.928289
L 451.546517 -163.502982
L 458.060674 -170.966148
L 464.574831 -170.966148
L 471.088989 -181.983202
L 477.603146 -188.557895
L 484.117303 -188.557895
L 490.631461 -188.557895
L 497.145618 -179.673174
L 503.659775 -179.673174
L 510.173933 -179.673174
L 516.68809 -179.673174
L 523.202247 -179.673174
L 529.716404 -179.673174
L 536.230562 -186.780951
L 542.744719 -198.508783
L 549.258876 -199.574949
L 555.773034 -199.574949
L 562.287191 -199.574949
L 568.801348 -205.083476
L 575.315506 -212.724336
L 581.829663 -222.675224
L 588.34382 -228.539139
L 594.857978 -240.266971
L 601.372135 -251.461719
L 607.886292 -259.813357
L 614.400449 -267.098828
L 620.914607 -274.206605
L 627.428764 -277.938188
L 633.942921 -281.314382
L 633.942921 -285.579048
L 633.942921 -285.579048
L 627.428764 -282.202854
L 620.914607 -278.471271
L 614.400449 -271.363494
L 607.886292 -264.078023
L 601.372135 -255.726385
L 594.857978 -244.531637
L 588.34382 -232.803805
L 581.829663 -226.93989
L 575.315506 -216.989002
L 568.801348 -209.348142
L 562.287191 -203.839615
L 555.773034 -203.839615
L 549.258876 -203.839615
L 542.744719 -202.773449
L 536.230562 -191.045617
L 529.716404 -182.871674
L 523.202247 -182.871674
L 516.68809 -182.871674
L 510.173933 -182.871674
L 503.659775 -182.871674
L 497.145618 -182.871674
L 490.631461 -191.756395
L 484.117303 -191.756395
L 477.603146 -191.756395
L 471.088989 -185.181701
L 464.574831 -174.164647
L 458.060674 -174.164647
L 451.546517 -166.701482
L 445.03236 -160.126788
L 438.518202 -154.085178
L 432.004045 -146.799707
L 425.489888 -146.799707
L 418.97573 -136.315736
L 412.461573 -133.294931
L 405.947416 -124.41021
L 399.433258 -121.034016
L 392.919101 -113.570851
L 386.404944 -108.595407
L 379.890787 -105.929991
L 373.376629 -103.442269
L 366.862472 -98.644519
L 360.348315 -98.466825
L 353.834157 -98.466825
L 347.32 -98.466825
L 340.805843 -98.466825
L 334.291685 -98.289131
L 327.777528 -95.268326
L 321.263371 -95.268326
L 314.749213 -92.425215
L 308.235056 -92.425215
L 301.720899 -89.759799
L 295.206742 -89.759799
L 288.692584 -88.160549
L 282.178427 -87.449771
L 275.66427 -87.449771
L 269.150112 -87.449771
L 262.635955 -87.449771
L 256.121798 -83.185105
L 249.60764 -82.829716
L 243.093483 -80.875078
L 236.579326 -80.519689
L 230.065169 -80.341994
L 223.551011 -80.341994
L 217.036854 -78.742745
L 210.522697 -77.676578
L 204.008539 -77.143495
L 197.494382 -74.655773
L 190.980225 -72.345746
L 184.466067 -71.279579
L 177.95191 -71.279579
L 171.437753 -66.659524
L 164.923596 -66.659524
L 158.409438 -66.659524
L 151.895281 -62.217164
L 145.381124 -59.196359
L 138.866966 -59.196359
L 132.352809 -57.774803
L 125.838652 -54.04322
L 119.324494 -54.04322
L 112.810337 -54.04322
L 106.29618 -51.733193
L 99.782022 -49.60086
L 93.267865 -47.290833
L 86.753708 -42.848472
L 80.239551 -42.315389
L 73.725393 -42.315389
L 67.211236 -42.315389
L 60.697079 -42.315389
z
" style="stroke: #1a1a19; stroke-opacity: 0.9; stroke-width: 1.2"/>
    </defs>
    <g clip-path="url(#pd8de7f619e)">
     <use xlink:href="#mde03a17ac5" x="0" y="331.2" style="fill: #d55181; fill-opacity: 0.9; stroke: #1a1a19; stroke-opacity: 0.9; stroke-width: 1.2"/>
    </g>
   </g>
   <g id="patch_3">
    <path d="M 57.44 289.24
L 57.44 33.44
" style="fill: none; stroke: #383835; stroke-width: 0.8; stroke-linejoin: miter; stroke-linecap: square"/>
   </g>
   <g id="patch_4">
    <path d="M 57.44 289.24
L 637.2 289.24
" style="fill: none; stroke: #383835; stroke-width: 0.8; stroke-linejoin: miter; stroke-linecap: square"/>
   </g>
   <g id="text_14">
    <text style="font-weight: 700; font-size: 12px; font-family: 'Inter', 'Helvetica Neue', 'Arial', 'DejaVu Sans', sans-serif; text-anchor: start; fill: #ffffff" x="57.44" y="19.44" transform="rotate(-0 57.44 19.44)">Library theorems by proof obligation (TASKS.md order), cumulative</text>
   </g>
   <g id="legend_1">
    <g id="patch_5">
     <path d="M 66.44 50.038438
L 86.44 50.038438
L 86.44 43.038438
L 66.44 43.038438
z
" style="fill: #d55181; fill-opacity: 0.9; stroke: #1a1a19; stroke-opacity: 0.9; stroke-width: 1.2; stroke-linejoin: miter"/>
    </g>
    <g id="text_15">
     <text style="font-size: 10px; font-family: 'Inter', 'Helvetica Neue', 'Arial', 'DejaVu Sans', sans-serif; text-anchor: start; fill: #c3c2b7" x="94.44" y="50.038438" transform="rotate(-0 94.44 50.038438)">Action diagnostic (order 8) (24)</text>
    </g>
    <g id="patch_6">
     <path d="M 66.44 64.716563
L 86.44 64.716563
L 86.44 57.716563
L 66.44 57.716563
z
" style="fill: #c98500; fill-opacity: 0.9; stroke: #1a1a19; stroke-opacity: 0.9; stroke-width: 1.2; stroke-linejoin: miter"/>
    </g>
    <g id="text_16">
     <text style="font-size: 10px; font-family: 'Inter', 'Helvetica Neue', 'Arial', 'DejaVu Sans', sans-serif; text-anchor: start; fill: #c3c2b7" x="94.44" y="64.716563" transform="rotate(-0 94.44 64.716563)">Prop. I realization (order 4) (1048)</text>
    </g>
    <g id="patch_7">
     <path d="M 66.44 79.394688
L 86.44 79.394688
L 86.44 72.394688
L 66.44 72.394688
z
" style="fill: #199e70; fill-opacity: 0.9; stroke: #1a1a19; stroke-opacity: 0.9; stroke-width: 1.2; stroke-linejoin: miter"/>
    </g>
    <g id="text_17">
     <text style="font-size: 10px; font-family: 'Inter', 'Helvetica Neue', 'Arial', 'DejaVu Sans', sans-serif; text-anchor: start; fill: #c3c2b7" x="94.44" y="79.394688" transform="rotate(-0 94.44 79.394688)">Props. II–IV finite steps (orders 5–7) (30)</text>
    </g>
    <g id="patch_8">
     <path d="M 66.44 94.072813
L 86.44 94.072813
L 86.44 87.072813
L 66.44 87.072813
z
" style="fill: #d95926; fill-opacity: 0.9; stroke: #1a1a19; stroke-opacity: 0.9; stroke-width: 1.2; stroke-linejoin: miter"/>
    </g>
    <g id="text_18">
     <text style="font-size: 10px; font-family: 'Inter', 'Helvetica Neue', 'Arial', 'DejaVu Sans', sans-serif; text-anchor: start; fill: #c3c2b7" x="94.44" y="94.072813" transform="rotate(-0 94.44 94.072813)">Finite joining &amp; refinement (orders 2–3) (147)</text>
    </g>
    <g id="patch_9">
     <path d="M 66.44 108.750938
L 86.44 108.750938
L 86.44 101.750938
L 66.44 101.750938
z
" style="fill: #3987e5; fill-opacity: 0.9; stroke: #1a1a19; stroke-opacity: 0.9; stroke-width: 1.2; stroke-linejoin: miter"/>
    </g>
    <g id="text_19">
     <text style="font-size: 10px; font-family: 'Inter', 'Helvetica Neue', 'Arial', 'DejaVu Sans', sans-serif; text-anchor: start; fill: #c3c2b7" x="94.44" y="108.750938" transform="rotate(-0 94.44 108.750938)">Stage-local, M1–M4 support, shared arithmetic (122)</text>
    </g>
   </g>
  </g>
 </g>
 <defs>
  <clipPath id="pd8de7f619e">
   <rect x="57.44" y="33.44" width="579.76" height="255.8"/>
  </clipPath>
 </defs>
</svg>
