<?xml version="1.0" encoding="utf-8" standalone="no"?>
<!DOCTYPE svg PUBLIC "-//W3C//DTD SVG 1.1//EN"
  "http://www.w3.org/Graphics/SVG/1.1/DTD/svg11.dtd">
<svg xmlns:xlink="http://www.w3.org/1999/xlink" width="648pt" height="331.2pt" viewBox="0 0 648 331.2" xmlns="http://www.w3.org/2000/svg" version="1.1">
 <metadata>
  <rdf:RDF xmlns:dc="http://purl.org/dc/elements/1.1/" xmlns:cc="http://creativecommons.org/ns#" xmlns:rdf="http://www.w3.org/1999/02/22-rdf-syntax-ns#">
   <cc:Work>
    <dc:type rdf:resource="http://purl.org/dc/dcmitype/StillImage"/>
    <dc:format>image/svg+xml</dc:format>
    <dc:creator>
     <cc:Agent>
      <dc:title>Matplotlib v3.10.7+dfsg1, https://matplotlib.org/</dc:title>
     </cc:Agent>
    </dc:creator>
   </cc:Work>
  </rdf:RDF>
 </metadata>
 <defs>
  <style type="text/css">*{stroke-linejoin: round; stroke-linecap: butt}</style>
 </defs>
 <g id="figure_1">
  <g id="patch_1">
   <path d="M 0 331.2
L 648 331.2
L 648 0
L 0 0
z
" style="fill: #1a1a19"/>
  </g>
  <g id="axes_1">
   <g id="patch_2">
    <path d="M 51.05 289.24
L 637.2 289.24
L 637.2 33.44
L 51.05 33.44
z
" style="fill: #1a1a19"/>
   </g>
   <g id="matplotlib.axis_1">
    <g id="xtick_1">
     <g id="line2d_1">
      <path d="M 54.807372 289.24
L 54.807372 33.44
" clip-path="url(#p23e95e0ba2)" style="fill: none; stroke: #2c2c2a; stroke-width: 0.8; stroke-linecap: square"/>
     </g>
     <g id="line2d_2">
      <defs>
       <path id="m02e6627c96" d="M 0 0
L 0 3.5
" style="stroke: #898781; stroke-width: 0.8"/>
      </defs>
      <g>
       <use xlink:href="#m02e6627c96" x="54.807372" y="289.24" style="fill: #898781; stroke: #898781; stroke-width: 0.8"/>
      </g>
     </g>
     <g id="text_1">
      <text style="font-size: 10px; font-family: 'Inter', 'Helvetica Neue', 'Arial', 'DejaVu Sans', sans-serif; text-anchor: middle; fill: #898781" x="54.807372" y="303.838437" transform="rotate(-0 54.807372 303.838437)">21–22 Sep</text>
     </g>
    </g>
    <g id="xtick_2">
     <g id="line2d_3">
      <path d="M 355.397115 289.24
L 355.397115 33.44
" clip-path="url(#p23e95e0ba2)" style="fill: none; stroke: #2c2c2a; stroke-width: 0.8; stroke-linecap: square"/>
     </g>
     <g id="line2d_4">
      <g>
       <use xlink:href="#m02e6627c96" x="355.397115" y="289.24" style="fill: #898781; stroke: #898781; stroke-width: 0.8"/>
      </g>
     </g>
     <g id="text_2">
      <text style="font-size: 10px; font-family: 'Inter', 'Helvetica Neue', 'Arial', 'DejaVu Sans', sans-serif; text-anchor: middle; fill: #898781" x="355.397115" y="303.838437" transform="rotate(-0 355.397115 303.838437)">28–29 Sep</text>
     </g>
    </g>
    <g id="xtick_3">
     <g id="line2d_5">
      <path d="M 408.000321 289.24
L 408.000321 33.44
" clip-path="url(#p23e95e0ba2)" style="fill: none; stroke: #2c2c2a; stroke-width: 0.8; stroke-linecap: square"/>
     </g>
     <g id="line2d_6">
      <g>
       <use xlink:href="#m02e6627c96" x="408.000321" y="289.24" style="fill: #898781; stroke: #898781; stroke-width: 0.8"/>
      </g>
     </g>
     <g id="text_3">
      <text style="font-size: 10px; font-family: 'Inter', 'Helvetica Neue', 'Arial', 'DejaVu Sans', sans-serif; text-anchor: middle; fill: #898781" x="408.000321" y="303.838437" transform="rotate(-0 408.000321 303.838437)">3–4 Oct</text>
     </g>
    </g>
    <g id="text_4">
     <text style="font-size: 10px; font-family: 'Inter', 'Helvetica Neue', 'Arial', 'DejaVu Sans', sans-serif; text-anchor: middle; fill: #c3c2b7" x="344.125" y="317.516562" transform="rotate(-0 344.125 317.516562)">Commit, oldest first (ticks mark the first commit of each work session)</text>
    </g>
   </g>
   <g id="matplotlib.axis_2">
    <g id="ytick_1">
     <g id="line2d_7">
      <path d="M 51.05 289.24
L 637.2 289.24
" clip-path="url(#p23e95e0ba2)" style="fill: none; stroke: #2c2c2a; stroke-width: 0.8; stroke-linecap: square"/>
     </g>
     <g id="line2d_8">
      <defs>
       <path id="mba09e6026b" d="M 0 0
L -3.5 0
" style="stroke: #898781; stroke-width: 0.8"/>
      </defs>
      <g>
       <use xlink:href="#mba09e6026b" x="51.05" y="289.24" style="fill: #898781; stroke: #898781; stroke-width: 0.8"/>
      </g>
     </g>
     <g id="text_5">
      <text style="font-size: 10px; font-family: 'Inter', 'Helvetica Neue', 'Arial', 'DejaVu Sans', sans-serif; text-anchor: end; fill: #898781" x="44.05" y="293.039219" transform="rotate(-0 44.05 293.039219)">0</text>
     </g>
    </g>
    <g id="ytick_2">
     <g id="line2d_9">
      <path d="M 51.05 235.756126
L 637.2 235.756126
" clip-path="url(#p23e95e0ba2)" style="fill: none; stroke: #2c2c2a; stroke-width: 0.8; stroke-linecap: square"/>
     </g>
     <g id="line2d_10">
      <g>
       <use xlink:href="#mba09e6026b" x="51.05" y="235.756126" style="fill: #898781; stroke: #898781; stroke-width: 0.8"/>
      </g>
     </g>
     <g id="text_6">
      <text style="font-size: 10px; font-family: 'Inter', 'Helvetica Neue', 'Arial', 'DejaVu Sans', sans-serif; text-anchor: end; fill: #898781" x="44.05" y="239.555344" transform="rotate(-0 44.05 239.555344)">200</text>
     </g>
    </g>
    <g id="ytick_3">
     <g id="line2d_11">
      <path d="M 51.05 182.272251
L 637.2 182.272251
" clip-path="url(#p23e95e0ba2)" style="fill: none; stroke: #2c2c2a; stroke-width: 0.8; stroke-linecap: square"/>
     </g>
     <g id="line2d_12">
      <g>
       <use xlink:href="#mba09e6026b" x="51.05" y="182.272251" style="fill: #898781; stroke: #898781; stroke-width: 0.8"/>
      </g>
     </g>
     <g id="text_7">
      <text style="font-size: 10px; font-family: 'Inter', 'Helvetica Neue', 'Arial', 'DejaVu Sans', sans-serif; text-anchor: end; fill: #898781" x="44.05" y="186.07147" transform="rotate(-0 44.05 186.07147)">400</text>
     </g>
    </g>
    <g id="ytick_4">
     <g id="line2d_13">
      <path d="M 51.05 128.788377
L 637.2 128.788377
" clip-path="url(#p23e95e0ba2)" style="fill: none; stroke: #2c2c2a; stroke-width: 0.8; stroke-linecap: square"/>
     </g>
     <g id="line2d_14">
      <g>
       <use xlink:href="#mba09e6026b" x="51.05" y="128.788377" style="fill: #898781; stroke: #898781; stroke-width: 0.8"/>
      </g>
     </g>
     <g id="text_8">
      <text style="font-size: 10px; font-family: 'Inter', 'Helvetica Neue', 'Arial', 'DejaVu Sans', sans-serif; text-anchor: end; fill: #898781" x="44.05" y="132.587596" transform="rotate(-0 44.05 132.587596)">600</text>
     </g>
    </g>
    <g id="ytick_5">
     <g id="line2d_15">
      <path d="M 51.05 75.304503
L 637.2 75.304503
" clip-path="url(#p23e95e0ba2)" style="fill: none; stroke: #2c2c2a; stroke-width: 0.8; stroke-linecap: square"/>
     </g>
     <g id="line2d_16">
      <g>
       <use xlink:href="#mba09e6026b" x="51.05" y="75.304503" style="fill: #898781; stroke: #898781; stroke-width: 0.8"/>
      </g>
     </g>
     <g id="text_9">
      <text style="font-size: 10px; font-family: 'Inter', 'Helvetica Neue', 'Arial', 'DejaVu Sans', sans-serif; text-anchor: end; fill: #898781" x="44.05" y="79.103721" transform="rotate(-0 44.05 79.103721)">800</text>
     </g>
    </g>
    <g id="text_10">
     <text style="font-size: 10px; font-family: 'Inter', 'Helvetica Neue', 'Arial', 'DejaVu Sans', sans-serif; text-anchor: middle; fill: #c3c2b7" x="18.882813" y="161.34" transform="rotate(-90 18.882813 161.34)">Theorems at commit</text>
    </g>
   </g>
   <g id="FillBetweenPolyCollection_1">
    <defs>
     <path id="mc28a63e27f" d="M 54.807372 -42.494839
L 54.807372 -41.96
L 62.322115 -41.96
L 69.836859 -41.96
L 77.351603 -41.96
L 84.866346 -41.96
L 92.38109 -41.96
L 99.895833 -41.96
L 107.410577 -41.96
L 114.925321 -41.96
L 122.440064 -41.96
L 129.954808 -41.96
L 137.469551 -41.96
L 144.984295 -41.96
L 152.499038 -41.96
L 160.013782 -41.96
L 167.528526 -41.96
L 175.043269 -41.96
L 182.558013 -41.96
L 190.072756 -41.96
L 197.5875 -41.96
L 205.102244 -41.96
L 212.616987 -41.96
L 220.131731 -41.96
L 227.646474 -41.96
L 235.161218 -41.96
L 242.675962 -41.96
L 250.190705 -41.96
L 257.705449 -41.96
L 265.220192 -41.96
L 272.734936 -41.96
L 280.249679 -41.96
L 287.764423 -41.96
L 295.279167 -41.96
L 302.79391 -41.96
L 310.308654 -41.96
L 317.823397 -41.96
L 325.338141 -41.96
L 332.852885 -41.96
L 340.367628 -41.96
L 347.882372 -41.96
L 355.397115 -41.96
L 362.911859 -41.96
L 370.426603 -41.96
L 377.941346 -41.96
L 385.45609 -41.96
L 392.970833 -41.96
L 400.485577 -41.96
L 408.000321 -41.96
L 415.515064 -41.96
L 423.029808 -41.96
L 430.544551 -41.96
L 438.059295 -41.96
L 445.574038 -41.96
L 453.088782 -41.96
L 460.603526 -41.96
L 468.118269 -41.96
L 475.633013 -41.96
L 483.147756 -41.96
L 490.6625 -41.96
L 498.177244 -41.96
L 505.691987 -41.96
L 513.206731 -41.96
L 520.721474 -41.96
L 528.236218 -41.96
L 535.750962 -41.96
L 543.265705 -41.96
L 550.780449 -41.96
L 558.295192 -41.96
L 565.809936 -41.96
L 573.324679 -41.96
L 580.839423 -41.96
L 588.354167 -41.96
L 595.86891 -41.96
L 603.383654 -41.96
L 610.898397 -41.96
L 618.413141 -41.96
L 625.927885 -41.96
L 633.442628 -41.96
L 633.442628 -72.445808
L 633.442628 -72.445808
L 625.927885 -72.445808
L 618.413141 -72.445808
L 610.898397 -72.178389
L 603.383654 -72.178389
L 595.86891 -72.178389
L 588.354167 -72.178389
L 580.839423 -72.178389
L 573.324679 -72.178389
L 565.809936 -72.178389
L 558.295192 -72.178389
L 550.780449 -69.504195
L 543.265705 -69.504195
L 535.750962 -69.504195
L 528.236218 -69.504195
L 520.721474 -69.504195
L 513.206731 -69.504195
L 505.691987 -69.504195
L 498.177244 -69.504195
L 490.6625 -69.504195
L 483.147756 -69.504195
L 475.633013 -69.504195
L 468.118269 -69.504195
L 460.603526 -69.504195
L 453.088782 -69.504195
L 445.574038 -69.504195
L 438.059295 -69.504195
L 430.544551 -69.504195
L 423.029808 -65.760324
L 415.515064 -65.760324
L 408.000321 -60.144517
L 400.485577 -60.144517
L 392.970833 -60.144517
L 385.45609 -60.144517
L 377.941346 -60.144517
L 370.426603 -60.144517
L 362.911859 -60.144517
L 355.397115 -60.144517
L 347.882372 -60.144517
L 340.367628 -60.144517
L 332.852885 -60.144517
L 325.338141 -60.144517
L 317.823397 -60.144517
L 310.308654 -60.144517
L 302.79391 -60.144517
L 295.279167 -60.144517
L 287.764423 -60.144517
L 280.249679 -60.144517
L 272.734936 -60.144517
L 265.220192 -60.144517
L 257.705449 -60.144517
L 250.190705 -60.144517
L 242.675962 -60.144517
L 235.161218 -60.144517
L 227.646474 -60.144517
L 220.131731 -60.144517
L 212.616987 -60.144517
L 205.102244 -60.144517
L 197.5875 -60.144517
L 190.072756 -60.144517
L 182.558013 -60.144517
L 175.043269 -60.144517
L 167.528526 -60.144517
L 160.013782 -60.144517
L 152.499038 -60.144517
L 144.984295 -60.144517
L 137.469551 -60.144517
L 129.954808 -60.144517
L 122.440064 -60.144517
L 114.925321 -60.144517
L 107.410577 -56.668065
L 99.895833 -53.459033
L 92.38109 -49.982581
L 84.866346 -43.297097
L 77.351603 -42.494839
L 69.836859 -42.494839
L 62.322115 -42.494839
L 54.807372 -42.494839
z
" style="stroke: #1a1a19; stroke-opacity: 0.9; stroke-width: 1.2"/>
    </defs>
    <g clip-path="url(#p23e95e0ba2)">
     <use xlink:href="#mc28a63e27f" x="0" y="331.2" style="fill: #3987e5; fill-opacity: 0.9; stroke: #1a1a19; stroke-opacity: 0.9; stroke-width: 1.2"/>
    </g>
   </g>
   <g id="FillBetweenPolyCollection_2">
    <defs>
     <path id="m1ab595ea05" d="M 54.807372 -42.494839
L 54.807372 -42.494839
L 62.322115 -42.494839
L 69.836859 -42.494839
L 77.351603 -42.494839
L 84.866346 -43.297097
L 92.38109 -49.982581
L 99.895833 -53.459033
L 107.410577 -56.668065
L 114.925321 -60.144517
L 122.440064 -60.144517
L 129.954808 -60.144517
L 137.469551 -60.144517
L 144.984295 -60.144517
L 152.499038 -60.144517
L 160.013782 -60.144517
L 167.528526 -60.144517
L 175.043269 -60.144517
L 182.558013 -60.144517
L 190.072756 -60.144517
L 197.5875 -60.144517
L 205.102244 -60.144517
L 212.616987 -60.144517
L 220.131731 -60.144517
L 227.646474 -60.144517
L 235.161218 -60.144517
L 242.675962 -60.144517
L 250.190705 -60.144517
L 257.705449 -60.144517
L 265.220192 -60.144517
L 272.734936 -60.144517
L 280.249679 -60.144517
L 287.764423 -60.144517
L 295.279167 -60.144517
L 302.79391 -60.144517
L 310.308654 -60.144517
L 317.823397 -60.144517
L 325.338141 -60.144517
L 332.852885 -60.144517
L 340.367628 -60.144517
L 347.882372 -60.144517
L 355.397115 -60.144517
L 362.911859 -60.144517
L 370.426603 -60.144517
L 377.941346 -60.144517
L 385.45609 -60.144517
L 392.970833 -60.144517
L 400.485577 -60.144517
L 408.000321 -60.144517
L 415.515064 -65.760324
L 423.029808 -65.760324
L 430.544551 -69.504195
L 438.059295 -69.504195
L 445.574038 -69.504195
L 453.088782 -69.504195
L 460.603526 -69.504195
L 468.118269 -69.504195
L 475.633013 -69.504195
L 483.147756 -69.504195
L 490.6625 -69.504195
L 498.177244 -69.504195
L 505.691987 -69.504195
L 513.206731 -69.504195
L 520.721474 -69.504195
L 528.236218 -69.504195
L 535.750962 -69.504195
L 543.265705 -69.504195
L 550.780449 -69.504195
L 558.295192 -72.178389
L 565.809936 -72.178389
L 573.324679 -72.178389
L 580.839423 -72.178389
L 588.354167 -72.178389
L 595.86891 -72.178389
L 603.383654 -72.178389
L 610.898397 -72.178389
L 618.413141 -72.445808
L 625.927885 -72.445808
L 633.442628 -72.445808
L 633.442628 -110.686779
L 633.442628 -110.686779
L 625.927885 -110.686779
L 618.413141 -110.686779
L 610.898397 -110.419359
L 603.383654 -110.419359
L 595.86891 -110.419359
L 588.354167 -110.419359
L 580.839423 -110.419359
L 573.324679 -110.419359
L 565.809936 -110.419359
L 558.295192 -110.419359
L 550.780449 -113.895811
L 543.265705 -113.895811
L 535.750962 -113.895811
L 528.236218 -113.895811
L 520.721474 -113.895811
L 513.206731 -113.895811
L 505.691987 -113.895811
L 498.177244 -113.895811
L 490.6625 -113.895811
L 483.147756 -113.895811
L 475.633013 -113.895811
L 468.118269 -113.895811
L 460.603526 -113.895811
L 453.088782 -113.895811
L 445.574038 -113.895811
L 438.059295 -113.895811
L 430.544551 -113.895811
L 423.029808 -110.15194
L 415.515064 -110.15194
L 408.000321 -104.536133
L 400.485577 -104.536133
L 392.970833 -104.536133
L 385.45609 -104.536133
L 377.941346 -104.536133
L 370.426603 -104.536133
L 362.911859 -99.990004
L 355.397115 -99.990004
L 347.882372 -99.990004
L 340.367628 -99.990004
L 332.852885 -99.990004
L 325.338141 -99.990004
L 317.823397 -99.990004
L 310.308654 -99.990004
L 302.79391 -99.990004
L 295.279167 -99.990004
L 287.764423 -99.990004
L 280.249679 -99.990004
L 272.734936 -99.990004
L 265.220192 -99.722584
L 257.705449 -99.187746
L 250.190705 -98.920326
L 242.675962 -98.920326
L 235.161218 -96.513552
L 227.646474 -94.909036
L 220.131731 -94.909036
L 212.616987 -91.165164
L 205.102244 -87.688713
L 197.5875 -86.084196
L 190.072756 -86.084196
L 182.558013 -79.131293
L 175.043269 -79.131293
L 167.528526 -79.131293
L 160.013782 -72.445808
L 152.499038 -67.899679
L 144.984295 -67.899679
L 137.469551 -65.760324
L 129.954808 -60.144517
L 122.440064 -60.144517
L 114.925321 -60.144517
L 107.410577 -56.668065
L 99.895833 -53.459033
L 92.38109 -49.982581
L 84.866346 -43.297097
L 77.351603 -42.494839
L 69.836859 -42.494839
L 62.322115 -42.494839
L 54.807372 -42.494839
z
" style="stroke: #1a1a19; stroke-opacity: 0.9; stroke-width: 1.2"/>
    </defs>
    <g clip-path="url(#p23e95e0ba2)">
     <use xlink:href="#m1ab595ea05" x="0" y="331.2" style="fill: #d95926; fill-opacity: 0.9; stroke: #1a1a19; stroke-opacity: 0.9; stroke-width: 1.2"/>
    </g>
   </g>
   <g id="FillBetweenPolyCollection_3">
    <defs>
     <path id="m865a7494e8" d="M 54.807372 -42.494839
L 54.807372 -42.494839
L 62.322115 -42.494839
L 69.836859 -42.494839
L 77.351603 -42.494839
L 84.866346 -43.297097
L 92.38109 -49.982581
L 99.895833 -53.459033
L 107.410577 -56.668065
L 114.925321 -60.144517
L 122.440064 -60.144517
L 129.954808 -60.144517
L 137.469551 -65.760324
L 144.984295 -67.899679
L 152.499038 -67.899679
L 160.013782 -72.445808
L 167.528526 -79.131293
L 175.043269 -79.131293
L 182.558013 -79.131293
L 190.072756 -86.084196
L 197.5875 -86.084196
L 205.102244 -87.688713
L 212.616987 -91.165164
L 220.131731 -94.909036
L 227.646474 -94.909036
L 235.161218 -96.513552
L 242.675962 -98.920326
L 250.190705 -98.920326
L 257.705449 -99.187746
L 265.220192 -99.722584
L 272.734936 -99.990004
L 280.249679 -99.990004
L 287.764423 -99.990004
L 295.279167 -99.990004
L 302.79391 -99.990004
L 310.308654 -99.990004
L 317.823397 -99.990004
L 325.338141 -99.990004
L 332.852885 -99.990004
L 340.367628 -99.990004
L 347.882372 -99.990004
L 355.397115 -99.990004
L 362.911859 -99.990004
L 370.426603 -104.536133
L 377.941346 -104.536133
L 385.45609 -104.536133
L 392.970833 -104.536133
L 400.485577 -104.536133
L 408.000321 -104.536133
L 415.515064 -110.15194
L 423.029808 -110.15194
L 430.544551 -113.895811
L 438.059295 -113.895811
L 445.574038 -113.895811
L 453.088782 -113.895811
L 460.603526 -113.895811
L 468.118269 -113.895811
L 475.633013 -113.895811
L 483.147756 -113.895811
L 490.6625 -113.895811
L 498.177244 -113.895811
L 505.691987 -113.895811
L 513.206731 -113.895811
L 520.721474 -113.895811
L 528.236218 -113.895811
L 535.750962 -113.895811
L 543.265705 -113.895811
L 550.780449 -113.895811
L 558.295192 -110.419359
L 565.809936 -110.419359
L 573.324679 -110.419359
L 580.839423 -110.419359
L 588.354167 -110.419359
L 595.86891 -110.419359
L 603.383654 -110.419359
L 610.898397 -110.419359
L 618.413141 -110.686779
L 625.927885 -110.686779
L 633.442628 -110.686779
L 633.442628 -118.70936
L 633.442628 -118.70936
L 625.927885 -118.70936
L 618.413141 -118.70936
L 610.898397 -118.44194
L 603.383654 -118.44194
L 595.86891 -118.44194
L 588.354167 -118.44194
L 580.839423 -118.44194
L 573.324679 -118.44194
L 565.809936 -118.44194
L 558.295192 -118.44194
L 550.780449 -121.918392
L 543.265705 -121.918392
L 535.750962 -121.918392
L 528.236218 -121.918392
L 520.721474 -121.918392
L 513.206731 -121.918392
L 505.691987 -121.918392
L 498.177244 -121.918392
L 490.6625 -121.918392
L 483.147756 -121.918392
L 475.633013 -121.918392
L 468.118269 -121.918392
L 460.603526 -121.918392
L 453.088782 -121.918392
L 445.574038 -121.918392
L 438.059295 -121.918392
L 430.544551 -121.918392
L 423.029808 -118.174521
L 415.515064 -118.174521
L 408.000321 -112.558714
L 400.485577 -112.291295
L 392.970833 -112.291295
L 385.45609 -112.291295
L 377.941346 -112.291295
L 370.426603 -112.023875
L 362.911859 -107.477746
L 355.397115 -107.477746
L 347.882372 -103.199036
L 340.367628 -103.199036
L 332.852885 -103.199036
L 325.338141 -103.199036
L 317.823397 -103.199036
L 310.308654 -103.199036
L 302.79391 -103.199036
L 295.279167 -103.199036
L 287.764423 -103.199036
L 280.249679 -103.199036
L 272.734936 -102.664197
L 265.220192 -99.722584
L 257.705449 -99.187746
L 250.190705 -98.920326
L 242.675962 -98.920326
L 235.161218 -96.513552
L 227.646474 -94.909036
L 220.131731 -94.909036
L 212.616987 -91.165164
L 205.102244 -87.688713
L 197.5875 -86.084196
L 190.072756 -86.084196
L 182.558013 -79.131293
L 175.043269 -79.131293
L 167.528526 -79.131293
L 160.013782 -72.445808
L 152.499038 -67.899679
L 144.984295 -67.899679
L 137.469551 -65.760324
L 129.954808 -60.144517
L 122.440064 -60.144517
L 114.925321 -60.144517
L 107.410577 -56.668065
L 99.895833 -53.459033
L 92.38109 -49.982581
L 84.866346 -43.297097
L 77.351603 -42.494839
L 69.836859 -42.494839
L 62.322115 -42.494839
L 54.807372 -42.494839
z
" style="stroke: #1a1a19; stroke-opacity: 0.9; stroke-width: 1.2"/>
    </defs>
    <g clip-path="url(#p23e95e0ba2)">
     <use xlink:href="#m865a7494e8" x="0" y="331.2" style="fill: #199e70; fill-opacity: 0.9; stroke: #1a1a19; stroke-opacity: 0.9; stroke-width: 1.2"/>
    </g>
   </g>
   <g id="FillBetweenPolyCollection_4">
    <defs>
     <path id="m6a9dfa7f49" d="M 54.807372 -42.494839
L 54.807372 -42.494839
L 62.322115 -42.494839
L 69.836859 -42.494839
L 77.351603 -42.494839
L 84.866346 -43.297097
L 92.38109 -49.982581
L 99.895833 -53.459033
L 107.410577 -56.668065
L 114.925321 -60.144517
L 122.440064 -60.144517
L 129.954808 -60.144517
L 137.469551 -65.760324
L 144.984295 -67.899679
L 152.499038 -67.899679
L 160.013782 -72.445808
L 167.528526 -79.131293
L 175.043269 -79.131293
L 182.558013 -79.131293
L 190.072756 -86.084196
L 197.5875 -86.084196
L 205.102244 -87.688713
L 212.616987 -91.165164
L 220.131731 -94.909036
L 227.646474 -94.909036
L 235.161218 -96.513552
L 242.675962 -98.920326
L 250.190705 -98.920326
L 257.705449 -99.187746
L 265.220192 -99.722584
L 272.734936 -102.664197
L 280.249679 -103.199036
L 287.764423 -103.199036
L 295.279167 -103.199036
L 302.79391 -103.199036
L 310.308654 -103.199036
L 317.823397 -103.199036
L 325.338141 -103.199036
L 332.852885 -103.199036
L 340.367628 -103.199036
L 347.882372 -103.199036
L 355.397115 -107.477746
L 362.911859 -107.477746
L 370.426603 -112.023875
L 377.941346 -112.291295
L 385.45609 -112.291295
L 392.970833 -112.291295
L 400.485577 -112.291295
L 408.000321 -112.558714
L 415.515064 -118.174521
L 423.029808 -118.174521
L 430.544551 -121.918392
L 438.059295 -121.918392
L 445.574038 -121.918392
L 453.088782 -121.918392
L 460.603526 -121.918392
L 468.118269 -121.918392
L 475.633013 -121.918392
L 483.147756 -121.918392
L 490.6625 -121.918392
L 498.177244 -121.918392
L 505.691987 -121.918392
L 513.206731 -121.918392
L 520.721474 -121.918392
L 528.236218 -121.918392
L 535.750962 -121.918392
L 543.265705 -121.918392
L 550.780449 -121.918392
L 558.295192 -118.44194
L 565.809936 -118.44194
L 573.324679 -118.44194
L 580.839423 -118.44194
L 588.354167 -118.44194
L 595.86891 -118.44194
L 603.383654 -118.44194
L 610.898397 -118.44194
L 618.413141 -118.70936
L 625.927885 -118.70936
L 633.442628 -118.70936
L 633.442628 -279.160983
L 633.442628 -279.160983
L 625.927885 -279.160983
L 618.413141 -279.160983
L 610.898397 -277.556466
L 603.383654 -259.906788
L 595.86891 -249.210013
L 588.354167 -249.210013
L 580.839423 -249.210013
L 573.324679 -249.210013
L 565.809936 -249.210013
L 558.295192 -249.210013
L 550.780449 -262.580982
L 543.265705 -262.580982
L 535.750962 -262.580982
L 528.236218 -252.686465
L 520.721474 -236.106464
L 513.206731 -236.106464
L 505.691987 -224.87485
L 498.177244 -214.980333
L 490.6625 -205.888075
L 483.147756 -194.923881
L 475.633013 -194.923881
L 468.118269 -179.146138
L 460.603526 -174.600008
L 453.088782 -161.22904
L 445.574038 -156.148072
L 438.059295 -144.916458
L 430.544551 -137.428716
L 423.029808 -133.417425
L 415.515064 -129.673554
L 408.000321 -122.453231
L 400.485577 -122.185812
L 392.970833 -122.185812
L 385.45609 -122.185812
L 377.941346 -122.185812
L 370.426603 -121.918392
L 362.911859 -117.372263
L 355.397115 -117.372263
L 347.882372 -113.093553
L 340.367628 -113.093553
L 332.852885 -113.093553
L 325.338141 -113.093553
L 317.823397 -110.686779
L 310.308654 -109.617101
L 302.79391 -109.617101
L 295.279167 -109.617101
L 287.764423 -109.617101
L 280.249679 -103.199036
L 272.734936 -102.664197
L 265.220192 -99.722584
L 257.705449 -99.187746
L 250.190705 -98.920326
L 242.675962 -98.920326
L 235.161218 -96.513552
L 227.646474 -94.909036
L 220.131731 -94.909036
L 212.616987 -91.165164
L 205.102244 -87.688713
L 197.5875 -86.084196
L 190.072756 -86.084196
L 182.558013 -79.131293
L 175.043269 -79.131293
L 167.528526 -79.131293
L 160.013782 -72.445808
L 152.499038 -67.899679
L 144.984295 -67.899679
L 137.469551 -65.760324
L 129.954808 -60.144517
L 122.440064 -60.144517
L 114.925321 -60.144517
L 107.410577 -56.668065
L 99.895833 -53.459033
L 92.38109 -49.982581
L 84.866346 -43.297097
L 77.351603 -42.494839
L 69.836859 -42.494839
L 62.322115 -42.494839
L 54.807372 -42.494839
z
" style="stroke: #1a1a19; stroke-opacity: 0.9; stroke-width: 1.2"/>
    </defs>
    <g clip-path="url(#p23e95e0ba2)">
     <use xlink:href="#m6a9dfa7f49" x="0" y="331.2" style="fill: #c98500; fill-opacity: 0.9; stroke: #1a1a19; stroke-opacity: 0.9; stroke-width: 1.2"/>
    </g>
   </g>
   <g id="FillBetweenPolyCollection_5">
    <defs>
     <path id="m8f2096919f" d="M 54.807372 -42.494839
L 54.807372 -42.494839
L 62.322115 -42.494839
L 69.836859 -42.494839
L 77.351603 -42.494839
L 84.866346 -43.297097
L 92.38109 -49.982581
L 99.895833 -53.459033
L 107.410577 -56.668065
L 114.925321 -60.144517
L 122.440064 -60.144517
L 129.954808 -60.144517
L 137.469551 -65.760324
L 144.984295 -67.899679
L 152.499038 -67.899679
L 160.013782 -72.445808
L 167.528526 -79.131293
L 175.043269 -79.131293
L 182.558013 -79.131293
L 190.072756 -86.084196
L 197.5875 -86.084196
L 205.102244 -87.688713
L 212.616987 -91.165164
L 220.131731 -94.909036
L 227.646474 -94.909036
L 235.161218 -96.513552
L 242.675962 -98.920326
L 250.190705 -98.920326
L 257.705449 -99.187746
L 265.220192 -99.722584
L 272.734936 -102.664197
L 280.249679 -103.199036
L 287.764423 -109.617101
L 295.279167 -109.617101
L 302.79391 -109.617101
L 310.308654 -109.617101
L 317.823397 -110.686779
L 325.338141 -113.093553
L 332.852885 -113.093553
L 340.367628 -113.093553
L 347.882372 -113.093553
L 355.397115 -117.372263
L 362.911859 -117.372263
L 370.426603 -121.918392
L 377.941346 -122.185812
L 385.45609 -122.185812
L 392.970833 -122.185812
L 400.485577 -122.185812
L 408.000321 -122.453231
L 415.515064 -129.673554
L 423.029808 -133.417425
L 430.544551 -137.428716
L 438.059295 -144.916458
L 445.574038 -156.148072
L 453.088782 -161.22904
L 460.603526 -174.600008
L 468.118269 -179.146138
L 475.633013 -194.923881
L 483.147756 -194.923881
L 490.6625 -205.888075
L 498.177244 -214.980333
L 505.691987 -224.87485
L 513.206731 -236.106464
L 520.721474 -236.106464
L 528.236218 -252.686465
L 535.750962 -262.580982
L 543.265705 -262.580982
L 550.780449 -262.580982
L 558.295192 -249.210013
L 565.809936 -249.210013
L 573.324679 -249.210013
L 580.839423 -249.210013
L 588.354167 -249.210013
L 595.86891 -249.210013
L 603.383654 -259.906788
L 610.898397 -277.556466
L 618.413141 -279.160983
L 625.927885 -279.160983
L 633.442628 -279.160983
L 633.442628 -285.579048
L 633.442628 -285.579048
L 625.927885 -285.579048
L 618.413141 -285.579048
L 610.898397 -283.974531
L 603.383654 -266.324853
L 595.86891 -254.023562
L 588.354167 -254.023562
L 580.839423 -254.023562
L 573.324679 -254.023562
L 565.809936 -254.023562
L 558.295192 -254.023562
L 550.780449 -267.39453
L 543.265705 -267.39453
L 535.750962 -267.39453
L 528.236218 -257.500014
L 520.721474 -240.920013
L 513.206731 -240.920013
L 505.691987 -229.688399
L 498.177244 -219.793882
L 490.6625 -210.701624
L 483.147756 -199.737429
L 475.633013 -199.737429
L 468.118269 -183.959686
L 460.603526 -179.413557
L 453.088782 -166.042588
L 445.574038 -160.96162
L 438.059295 -149.730007
L 430.544551 -142.242264
L 423.029808 -138.230974
L 415.515064 -134.487103
L 408.000321 -127.26678
L 400.485577 -126.99936
L 392.970833 -126.99936
L 385.45609 -126.99936
L 377.941346 -126.99936
L 370.426603 -126.731941
L 362.911859 -122.185812
L 355.397115 -122.185812
L 347.882372 -117.907102
L 340.367628 -117.907102
L 332.852885 -113.895811
L 325.338141 -113.895811
L 317.823397 -111.489037
L 310.308654 -110.419359
L 302.79391 -110.419359
L 295.279167 -110.419359
L 287.764423 -110.419359
L 280.249679 -104.001294
L 272.734936 -103.466455
L 265.220192 -100.524842
L 257.705449 -99.990004
L 250.190705 -99.722584
L 242.675962 -99.722584
L 235.161218 -97.31581
L 227.646474 -95.711294
L 220.131731 -94.909036
L 212.616987 -91.165164
L 205.102244 -87.688713
L 197.5875 -86.084196
L 190.072756 -86.084196
L 182.558013 -79.131293
L 175.043269 -79.131293
L 167.528526 -79.131293
L 160.013782 -72.445808
L 152.499038 -67.899679
L 144.984295 -67.899679
L 137.469551 -65.760324
L 129.954808 -60.144517
L 122.440064 -60.144517
L 114.925321 -60.144517
L 107.410577 -56.668065
L 99.895833 -53.459033
L 92.38109 -49.982581
L 84.866346 -43.297097
L 77.351603 -42.494839
L 69.836859 -42.494839
L 62.322115 -42.494839
L 54.807372 -42.494839
z
" style="stroke: #1a1a19; stroke-opacity: 0.9; stroke-width: 1.2"/>
    </defs>
    <g clip-path="url(#p23e95e0ba2)">
     <use xlink:href="#m8f2096919f" x="0" y="331.2" style="fill: #d55181; fill-opacity: 0.9; stroke: #1a1a19; stroke-opacity: 0.9; stroke-width: 1.2"/>
    </g>
   </g>
   <g id="patch_3">
    <path d="M 51.05 289.24
L 51.05 33.44
" style="fill: none; stroke: #383835; stroke-width: 0.8; stroke-linejoin: miter; stroke-linecap: square"/>
   </g>
   <g id="patch_4">
    <path d="M 51.05 289.24
L 637.2 289.24
" style="fill: none; stroke: #383835; stroke-width: 0.8; stroke-linejoin: miter; stroke-linecap: square"/>
   </g>
   <g id="text_11">
    <text style="font-weight: 700; font-size: 12px; font-family: 'Inter', 'Helvetica Neue', 'Arial', 'DejaVu Sans', sans-serif; text-anchor: start; fill: #ffffff" x="51.05" y="19.44" transform="rotate(-0 51.05 19.44)">Library theorems by proof obligation (TASKS.md order), cumulative</text>
   </g>
   <g id="legend_1">
    <g id="patch_5">
     <path d="M 60.05 50.038438
L 80.05 50.038438
L 80.05 43.038438
L 60.05 43.038438
z
" style="fill: #d55181; fill-opacity: 0.9; stroke: #1a1a19; stroke-opacity: 0.9; stroke-width: 1.2; stroke-linejoin: miter"/>
    </g>
    <g id="text_12">
     <text style="font-size: 10px; font-family: 'Inter', 'Helvetica Neue', 'Arial', 'DejaVu Sans', sans-serif; text-anchor: start; fill: #c3c2b7" x="88.05" y="50.038438" transform="rotate(-0 88.05 50.038438)">Action diagnostic (order 8) (24)</text>
    </g>
    <g id="patch_6">
     <path d="M 60.05 64.716563
L 80.05 64.716563
L 80.05 57.716563
L 60.05 57.716563
z
" style="fill: #c98500; fill-opacity: 0.9; stroke: #1a1a19; stroke-opacity: 0.9; stroke-width: 1.2; stroke-linejoin: miter"/>
    </g>
    <g id="text_13">
     <text style="font-size: 10px; font-family: 'Inter', 'Helvetica Neue', 'Arial', 'DejaVu Sans', sans-serif; text-anchor: start; fill: #c3c2b7" x="88.05" y="64.716563" transform="rotate(-0 88.05 64.716563)">Prop. I realization (order 4) (600)</text>
    </g>
    <g id="patch_7">
     <path d="M 60.05 79.394688
L 80.05 79.394688
L 80.05 72.394688
L 60.05 72.394688
z
" style="fill: #199e70; fill-opacity: 0.9; stroke: #1a1a19; stroke-opacity: 0.9; stroke-width: 1.2; stroke-linejoin: miter"/>
    </g>
    <g id="text_14">
     <text style="font-size: 10px; font-family: 'Inter', 'Helvetica Neue', 'Arial', 'DejaVu Sans', sans-serif; text-anchor: start; fill: #c3c2b7" x="88.05" y="79.394688" transform="rotate(-0 88.05 79.394688)">Props. II–IV finite steps (orders 5–7) (30)</text>
    </g>
    <g id="patch_8">
     <path d="M 60.05 94.072813
L 80.05 94.072813
L 80.05 87.072813
L 60.05 87.072813
z
" style="fill: #d95926; fill-opacity: 0.9; stroke: #1a1a19; stroke-opacity: 0.9; stroke-width: 1.2; stroke-linejoin: miter"/>
    </g>
    <g id="text_15">
     <text style="font-size: 10px; font-family: 'Inter', 'Helvetica Neue', 'Arial', 'DejaVu Sans', sans-serif; text-anchor: start; fill: #c3c2b7" x="88.05" y="94.072813" transform="rotate(-0 88.05 94.072813)">Finite joining &amp; refinement (orders 2–3) (143)</text>
    </g>
    <g id="patch_9">
     <path d="M 60.05 108.750938
L 80.05 108.750938
L 80.05 101.750938
L 60.05 101.750938
z
" style="fill: #3987e5; fill-opacity: 0.9; stroke: #1a1a19; stroke-opacity: 0.9; stroke-width: 1.2; stroke-linejoin: miter"/>
    </g>
    <g id="text_16">
     <text style="font-size: 10px; font-family: 'Inter', 'Helvetica Neue', 'Arial', 'DejaVu Sans', sans-serif; text-anchor: start; fill: #c3c2b7" x="88.05" y="108.750938" transform="rotate(-0 88.05 108.750938)">Stage-local, M1–M4 support, shared arithmetic (114)</text>
    </g>
   </g>
  </g>
 </g>
 <defs>
  <clipPath id="p23e95e0ba2">
   <rect x="51.05" y="33.44" width="586.15" height="255.8"/>
  </clipPath>
 </defs>
</svg>
