<?xml version="1.0" encoding="utf-8" standalone="no"?>
<!DOCTYPE svg PUBLIC "-//W3C//DTD SVG 1.1//EN"
  "http://www.w3.org/Graphics/SVG/1.1/DTD/svg11.dtd">
<svg xmlns:xlink="http://www.w3.org/1999/xlink" width="648pt" height="302.4pt" viewBox="0 0 648 302.4" xmlns="http://www.w3.org/2000/svg" version="1.1">
 <metadata>
  <rdf:RDF xmlns:dc="http://purl.org/dc/elements/1.1/" xmlns:cc="http://creativecommons.org/ns#" xmlns:rdf="http://www.w3.org/1999/02/22-rdf-syntax-ns#">
   <cc:Work>
    <dc:type rdf:resource="http://purl.org/dc/dcmitype/StillImage"/>
    <dc:format>image/svg+xml</dc:format>
    <dc:creator>
     <cc:Agent>
      <dc:title>Matplotlib v3.10.7+dfsg1, https://matplotlib.org/</dc:title>
     </cc:Agent>
    </dc:creator>
   </cc:Work>
  </rdf:RDF>
 </metadata>
 <defs>
  <style type="text/css">*{stroke-linejoin: round; stroke-linecap: butt}</style>
 </defs>
 <g id="figure_1">
  <g id="patch_1">
   <path d="M 0 302.4
L 648 302.4
L 648 0
L 0 0
z
" style="fill: #1a1a19"/>
  </g>
  <g id="axes_1">
   <g id="patch_2">
    <path d="M 57.44 260.44
L 619.184492 260.44
L 619.184492 33.44
L 57.44 33.44
z
" style="fill: #1a1a19"/>
   </g>
   <g id="matplotlib.axis_1">
    <g id="xtick_1">
     <g id="line2d_1">
      <path d="M 60.443981 260.44
L 60.443981 33.44
" clip-path="url(#p80b41a624b)" style="fill: none; stroke: #2c2c2a; stroke-width: 0.8; stroke-linecap: square"/>
     </g>
     <g id="line2d_2">
      <defs>
       <path id="m02e6627c96" d="M 0 0
L 0 3.5
" style="stroke: #898781; stroke-width: 0.8"/>
      </defs>
      <g>
       <use xlink:href="#m02e6627c96" x="60.443981" y="260.44" style="fill: #898781; stroke: #898781; stroke-width: 0.8"/>
      </g>
     </g>
     <g id="text_1">
      <text style="font-size: 10px; font-family: 'Inter', 'Helvetica Neue', 'Arial', 'DejaVu Sans', sans-serif; text-anchor: middle; fill: #898781" x="60.443981" y="275.038438" transform="rotate(-0 60.443981 275.038438)">21–22 Sep</text>
     </g>
    </g>
    <g id="xtick_2">
     <g id="line2d_3">
      <path d="M 300.76248 260.44
L 300.76248 33.44
" clip-path="url(#p80b41a624b)" style="fill: none; stroke: #2c2c2a; stroke-width: 0.8; stroke-linecap: square"/>
     </g>
     <g id="line2d_4">
      <g>
       <use xlink:href="#m02e6627c96" x="300.76248" y="260.44" style="fill: #898781; stroke: #898781; stroke-width: 0.8"/>
      </g>
     </g>
     <g id="text_2">
      <text style="font-size: 10px; font-family: 'Inter', 'Helvetica Neue', 'Arial', 'DejaVu Sans', sans-serif; text-anchor: middle; fill: #898781" x="300.76248" y="275.038438" transform="rotate(-0 300.76248 275.038438)">28–29 Sep</text>
     </g>
    </g>
    <g id="xtick_3">
     <g id="line2d_5">
      <path d="M 342.818218 260.44
L 342.818218 33.44
" clip-path="url(#p80b41a624b)" style="fill: none; stroke: #2c2c2a; stroke-width: 0.8; stroke-linecap: square"/>
     </g>
     <g id="line2d_6">
      <g>
       <use xlink:href="#m02e6627c96" x="342.818218" y="260.44" style="fill: #898781; stroke: #898781; stroke-width: 0.8"/>
      </g>
     </g>
     <g id="text_3">
      <text style="font-size: 10px; font-family: 'Inter', 'Helvetica Neue', 'Arial', 'DejaVu Sans', sans-serif; text-anchor: middle; fill: #898781" x="342.818218" y="275.038438" transform="rotate(-0 342.818218 275.038438)">3–5 Oct</text>
     </g>
    </g>
    <g id="text_4">
     <text style="font-size: 10px; font-family: 'Inter', 'Helvetica Neue', 'Arial', 'DejaVu Sans', sans-serif; text-anchor: middle; fill: #c3c2b7" x="338.312246" y="288.716563" transform="rotate(-0 338.312246 288.716563)">Commit, oldest first (ticks mark the first commit of each work session)</text>
    </g>
   </g>
   <g id="matplotlib.axis_2">
    <g id="ytick_1">
     <g id="line2d_7">
      <path d="M 57.44 260.44
L 619.184492 260.44
" clip-path="url(#p80b41a624b)" style="fill: none; stroke: #2c2c2a; stroke-width: 0.8; stroke-linecap: square"/>
     </g>
     <g id="line2d_8">
      <defs>
       <path id="mba09e6026b" d="M 0 0
L -3.5 0
" style="stroke: #898781; stroke-width: 0.8"/>
      </defs>
      <g>
       <use xlink:href="#mba09e6026b" x="57.44" y="260.44" style="fill: #898781; stroke: #898781; stroke-width: 0.8"/>
      </g>
     </g>
     <g id="text_5">
      <text style="font-size: 10px; font-family: 'Inter', 'Helvetica Neue', 'Arial', 'DejaVu Sans', sans-serif; text-anchor: end; fill: #898781" x="50.44" y="264.239219" transform="rotate(-0 50.44 264.239219)">0</text>
     </g>
    </g>
    <g id="ytick_2">
     <g id="line2d_9">
      <path d="M 57.44 228.901271
L 619.184492 228.901271
" clip-path="url(#p80b41a624b)" style="fill: none; stroke: #2c2c2a; stroke-width: 0.8; stroke-linecap: square"/>
     </g>
     <g id="line2d_10">
      <g>
       <use xlink:href="#mba09e6026b" x="57.44" y="228.901271" style="fill: #898781; stroke: #898781; stroke-width: 0.8"/>
      </g>
     </g>
     <g id="text_6">
      <text style="font-size: 10px; font-family: 'Inter', 'Helvetica Neue', 'Arial', 'DejaVu Sans', sans-serif; text-anchor: end; fill: #898781" x="50.44" y="232.70049" transform="rotate(-0 50.44 232.70049)">200</text>
     </g>
    </g>
    <g id="ytick_3">
     <g id="line2d_11">
      <path d="M 57.44 197.362543
L 619.184492 197.362543
" clip-path="url(#p80b41a624b)" style="fill: none; stroke: #2c2c2a; stroke-width: 0.8; stroke-linecap: square"/>
     </g>
     <g id="line2d_12">
      <g>
       <use xlink:href="#mba09e6026b" x="57.44" y="197.362543" style="fill: #898781; stroke: #898781; stroke-width: 0.8"/>
      </g>
     </g>
     <g id="text_7">
      <text style="font-size: 10px; font-family: 'Inter', 'Helvetica Neue', 'Arial', 'DejaVu Sans', sans-serif; text-anchor: end; fill: #898781" x="50.44" y="201.161761" transform="rotate(-0 50.44 201.161761)">400</text>
     </g>
    </g>
    <g id="ytick_4">
     <g id="line2d_13">
      <path d="M 57.44 165.823814
L 619.184492 165.823814
" clip-path="url(#p80b41a624b)" style="fill: none; stroke: #2c2c2a; stroke-width: 0.8; stroke-linecap: square"/>
     </g>
     <g id="line2d_14">
      <g>
       <use xlink:href="#mba09e6026b" x="57.44" y="165.823814" style="fill: #898781; stroke: #898781; stroke-width: 0.8"/>
      </g>
     </g>
     <g id="text_8">
      <text style="font-size: 10px; font-family: 'Inter', 'Helvetica Neue', 'Arial', 'DejaVu Sans', sans-serif; text-anchor: end; fill: #898781" x="50.44" y="169.623033" transform="rotate(-0 50.44 169.623033)">600</text>
     </g>
    </g>
    <g id="ytick_5">
     <g id="line2d_15">
      <path d="M 57.44 134.285085
L 619.184492 134.285085
" clip-path="url(#p80b41a624b)" style="fill: none; stroke: #2c2c2a; stroke-width: 0.8; stroke-linecap: square"/>
     </g>
     <g id="line2d_16">
      <g>
       <use xlink:href="#mba09e6026b" x="57.44" y="134.285085" style="fill: #898781; stroke: #898781; stroke-width: 0.8"/>
      </g>
     </g>
     <g id="text_9">
      <text style="font-size: 10px; font-family: 'Inter', 'Helvetica Neue', 'Arial', 'DejaVu Sans', sans-serif; text-anchor: end; fill: #898781" x="50.44" y="138.084304" transform="rotate(-0 50.44 138.084304)">800</text>
     </g>
    </g>
    <g id="ytick_6">
     <g id="line2d_17">
      <path d="M 57.44 102.746356
L 619.184492 102.746356
" clip-path="url(#p80b41a624b)" style="fill: none; stroke: #2c2c2a; stroke-width: 0.8; stroke-linecap: square"/>
     </g>
     <g id="line2d_18">
      <g>
       <use xlink:href="#mba09e6026b" x="57.44" y="102.746356" style="fill: #898781; stroke: #898781; stroke-width: 0.8"/>
      </g>
     </g>
     <g id="text_10">
      <text style="font-size: 10px; font-family: 'Inter', 'Helvetica Neue', 'Arial', 'DejaVu Sans', sans-serif; text-anchor: end; fill: #898781" x="50.44" y="106.545575" transform="rotate(-0 50.44 106.545575)">1000</text>
     </g>
    </g>
    <g id="ytick_7">
     <g id="line2d_19">
      <path d="M 57.44 71.207628
L 619.184492 71.207628
" clip-path="url(#p80b41a624b)" style="fill: none; stroke: #2c2c2a; stroke-width: 0.8; stroke-linecap: square"/>
     </g>
     <g id="line2d_20">
      <g>
       <use xlink:href="#mba09e6026b" x="57.44" y="71.207628" style="fill: #898781; stroke: #898781; stroke-width: 0.8"/>
      </g>
     </g>
     <g id="text_11">
      <text style="font-size: 10px; font-family: 'Inter', 'Helvetica Neue', 'Arial', 'DejaVu Sans', sans-serif; text-anchor: end; fill: #898781" x="50.44" y="75.006846" transform="rotate(-0 50.44 75.006846)">1200</text>
     </g>
    </g>
    <g id="ytick_8">
     <g id="line2d_21">
      <path d="M 57.44 39.668899
L 619.184492 39.668899
" clip-path="url(#p80b41a624b)" style="fill: none; stroke: #2c2c2a; stroke-width: 0.8; stroke-linecap: square"/>
     </g>
     <g id="line2d_22">
      <g>
       <use xlink:href="#mba09e6026b" x="57.44" y="39.668899" style="fill: #898781; stroke: #898781; stroke-width: 0.8"/>
      </g>
     </g>
     <g id="text_12">
      <text style="font-size: 10px; font-family: 'Inter', 'Helvetica Neue', 'Arial', 'DejaVu Sans', sans-serif; text-anchor: end; fill: #898781" x="50.44" y="43.468118" transform="rotate(-0 50.44 43.468118)">1400</text>
     </g>
    </g>
    <g id="text_13">
     <text style="font-size: 10px; font-family: 'Inter', 'Helvetica Neue', 'Arial', 'DejaVu Sans', sans-serif; text-anchor: middle; fill: #c3c2b7" x="18.910313" y="146.94" transform="rotate(-90 18.910313 146.94)">Count at commit</text>
    </g>
   </g>
   <g id="line2d_23">
    <path d="M 60.443981 260.124613
L 66.451944 260.124613
L 72.459906 260.124613
L 78.467869 260.124613
L 84.475831 259.651532
L 90.483794 255.709191
L 96.491756 253.659173
L 102.499719 251.76685
L 108.507681 249.716832
L 114.515644 249.716832
L 120.523606 249.716832
L 126.531569 246.405266
L 132.539531 245.143717
L 138.547493 245.143717
L 144.555456 242.462925
L 150.563418 238.520584
L 156.571381 238.520584
L 162.579343 238.520584
L 168.587306 234.420549
L 174.595268 234.420549
L 180.603231 233.474387
L 186.611193 231.42437
L 192.619156 229.216659
L 198.627118 228.743578
L 204.635081 227.797416
L 210.643043 226.378173
L 216.651006 226.378173
L 222.658968 226.220479
L 228.666931 225.905092
L 234.674893 224.170462
L 240.682856 223.855075
L 246.690818 220.070427
L 252.698781 220.070427
L 258.706743 220.070427
L 264.714706 220.070427
L 270.722668 219.439653
L 276.730631 218.02041
L 282.738593 218.02041
L 288.746556 215.655005
L 294.754518 215.655005
L 300.76248 213.131907
L 306.770443 213.131907
L 312.778405 210.451115
L 318.786368 210.293421
L 324.79433 210.293421
L 330.802293 210.293421
L 336.810255 210.293421
L 342.818218 210.135728
L 348.82618 205.877999
L 354.834143 203.670288
L 360.842105 201.304884
L 366.850068 196.889462
L 372.85803 190.266329
L 378.865993 187.270149
L 384.873955 179.385467
L 390.881918 176.704675
L 396.88988 167.40075
L 402.897843 167.40075
L 408.905805 160.935311
L 414.913768 155.573727
L 420.92173 149.739062
L 426.929693 143.115929
L 432.937655 143.115929
L 438.945618 133.338923
L 444.95358 127.504258
L 450.961543 127.504258
L 456.969505 127.504258
L 462.977467 135.388941
L 468.98543 135.388941
L 474.993392 135.388941
L 481.001355 135.388941
L 487.009317 135.388941
L 493.01728 135.388941
L 499.025242 128.135033
L 505.033205 117.727253
L 511.041167 116.781091
L 517.04913 116.781091
L 523.057092 116.781091
L 529.065055 111.892588
L 535.073017 105.111761
L 541.08098 96.280917
L 547.088942 91.077027
L 553.096905 80.669246
L 559.104867 70.734547
L 565.11283 63.322945
L 571.120792 56.857506
L 577.128755 50.54976
L 583.136717 47.238194
L 589.14468 44.242015
L 595.152642 44.242015
" clip-path="url(#p80b41a624b)" style="fill: none; stroke: #3987e5; stroke-width: 2; stroke-linecap: round"/>
   </g>
   <g id="line2d_24">
    <defs>
     <path id="mac1dc9c99d" d="M 0 4
C 1.060812 4 2.078319 3.578535 2.828427 2.828427
C 3.578535 2.078319 4 1.060812 4 0
C 4 -1.060812 3.578535 -2.078319 2.828427 -2.828427
C 2.078319 -3.578535 1.060812 -4 0 -4
C -1.060812 -4 -2.078319 -3.578535 -2.828427 -2.828427
C -3.578535 -2.078319 -4 -1.060812 -4 0
C -4 1.060812 -3.578535 2.078319 -2.828427 2.828427
C -2.078319 3.578535 -1.060812 4 0 4
z
" style="stroke: #1a1a19; stroke-width: 2"/>
    </defs>
    <g clip-path="url(#p80b41a624b)">
     <use xlink:href="#mac1dc9c99d" x="595.152642" y="44.242015" style="fill: #3987e5; stroke: #1a1a19; stroke-width: 2"/>
    </g>
   </g>
   <g id="line2d_25">
    <path d="M 60.443981 260.282306
L 66.451944 260.282306
L 72.459906 260.282306
L 78.467869 260.282306
L 84.475831 259.651532
L 90.483794 258.389983
L 96.491756 257.128433
L 102.499719 256.655353
L 108.507681 255.23611
L 114.515644 255.23611
L 120.523606 255.23611
L 126.531569 252.082237
L 132.539531 251.293769
L 138.547493 251.293769
L 144.555456 250.820688
L 150.563418 247.824509
L 156.571381 247.824509
L 162.579343 247.824509
L 168.587306 245.459104
L 174.595268 245.459104
L 180.603231 244.512942
L 186.611193 243.409086
L 192.619156 241.359069
L 198.627118 240.885988
L 204.635081 240.09752
L 210.643043 239.782133
L 216.651006 239.782133
L 222.658968 239.624439
L 228.666931 239.466745
L 234.674893 238.520584
L 240.682856 238.205196
L 246.690818 236.943647
L 252.698781 236.943647
L 258.706743 236.943647
L 264.714706 236.943647
L 270.722668 236.312873
L 276.730631 235.682098
L 282.738593 235.682098
L 288.746556 233.474387
L 294.754518 233.474387
L 300.76248 231.897451
L 306.770443 231.897451
L 312.778405 231.108982
L 318.786368 230.951289
L 324.79433 230.951289
L 330.802293 230.951289
L 336.810255 230.951289
L 342.818218 231.108982
L 348.82618 229.689739
L 354.834143 228.743578
L 360.842105 228.585884
L 366.850068 227.008948
L 372.85803 223.381994
L 378.865993 223.066606
L 384.873955 217.231942
L 390.881918 215.970392
L 396.88988 210.766502
L 402.897843 210.766502
L 408.905805 206.981855
L 414.913768 203.039514
L 420.92173 198.151011
L 426.929693 194.681751
L 432.937655 194.681751
L 438.945618 186.0086
L 444.95358 181.435485
L 450.961543 181.435485
L 456.969505 181.435485
L 462.977467 181.435485
L 468.98543 181.435485
L 474.993392 181.435485
L 481.001355 181.435485
L 487.009317 181.435485
L 493.01728 181.435485
L 499.025242 176.073901
L 505.033205 168.662299
L 511.041167 167.716138
L 517.04913 167.716138
L 523.057092 167.716138
L 529.065055 163.458409
L 535.073017 157.150663
L 541.08098 148.950594
L 547.088942 145.165947
L 553.096905 136.019715
L 559.104867 126.71579
L 565.11283 120.250351
L 571.120792 113.942605
L 577.128755 107.792553
L 583.136717 105.900229
L 589.14468 103.534825
L 595.152642 103.534825
" clip-path="url(#p80b41a624b)" style="fill: none; stroke: #199e70; stroke-width: 2; stroke-linecap: round"/>
   </g>
   <g id="line2d_26">
    <defs>
     <path id="m722327b75b" d="M 0 4
C 1.060812 4 2.078319 3.578535 2.828427 2.828427
C 3.578535 2.078319 4 1.060812 4 0
C 4 -1.060812 3.578535 -2.078319 2.828427 -2.828427
C 2.078319 -3.578535 1.060812 -4 0 -4
C -1.060812 -4 -2.078319 -3.578535 -2.828427 -2.828427
C -3.578535 -2.078319 -4 -1.060812 -4 0
C -4 1.060812 -3.578535 2.078319 -2.828427 2.828427
C -2.078319 3.578535 -1.060812 4 0 4
z
" style="stroke: #1a1a19; stroke-width: 2"/>
    </defs>
    <g clip-path="url(#p80b41a624b)">
     <use xlink:href="#m722327b75b" x="595.152642" y="103.534825" style="fill: #199e70; stroke: #1a1a19; stroke-width: 2"/>
    </g>
   </g>
   <g id="line2d_27">
    <path d="M 60.443981 260.282306
L 66.451944 260.282306
L 72.459906 260.282306
L 78.467869 260.282306
L 84.475831 259.493838
L 90.483794 257.128433
L 96.491756 255.393803
L 102.499719 254.920722
L 108.507681 253.50148
L 114.515644 253.50148
L 120.523606 253.50148
L 126.531569 250.820688
L 132.539531 250.189913
L 138.547493 250.189913
L 144.555456 246.247572
L 150.563418 243.56678
L 156.571381 243.56678
L 162.579343 243.56678
L 168.587306 242.305231
L 174.595268 242.305231
L 180.603231 241.83215
L 186.611193 241.359069
L 192.619156 241.043682
L 198.627118 240.570601
L 204.635081 240.412907
L 210.643043 240.412907
L 216.651006 240.412907
L 222.658968 240.412907
L 228.666931 240.412907
L 234.674893 240.09752
L 240.682856 239.939826
L 246.690818 238.36289
L 252.698781 238.36289
L 258.706743 238.36289
L 264.714706 238.36289
L 270.722668 237.574422
L 276.730631 237.574422
L 282.738593 237.574422
L 288.746556 235.051323
L 294.754518 235.051323
L 300.76248 233.789774
L 306.770443 233.789774
L 312.778405 233.001306
L 318.786368 231.739757
L 324.79433 231.739757
L 330.802293 231.739757
L 336.810255 231.739757
L 342.818218 231.739757
L 348.82618 229.847433
L 354.834143 228.270497
L 360.842105 228.112803
L 366.850068 226.378173
L 372.85803 223.855075
L 378.865993 223.066606
L 384.873955 220.701202
L 390.881918 219.597346
L 396.88988 215.339618
L 402.897843 215.339618
L 408.905805 212.81652
L 414.913768 209.978034
L 420.92173 207.139548
L 426.929693 204.458757
L 432.937655 204.458757
L 438.945618 199.727947
L 444.95358 195.154832
L 450.961543 195.154832
L 456.969505 195.154832
L 462.977467 195.154832
L 468.98543 195.154832
L 474.993392 195.154832
L 481.001355 195.154832
L 487.009317 195.154832
L 493.01728 195.154832
L 499.025242 189.320167
L 505.033205 184.747051
L 511.041167 184.27397
L 517.04913 184.27397
L 523.057092 184.27397
L 529.065055 182.381646
L 535.073017 180.80471
L 541.08098 179.385467
L 547.088942 177.493143
L 553.096905 174.496964
L 559.104867 170.87001
L 565.11283 168.189218
L 571.120792 166.296895
L 577.128755 163.773796
L 583.136717 162.19686
L 589.14468 160.935311
L 595.152642 160.935311
" clip-path="url(#p80b41a624b)" style="fill: none; stroke: #d95926; stroke-width: 2; stroke-linecap: round"/>
   </g>
   <g id="line2d_28">
    <defs>
     <path id="mbab71778b5" d="M 0 4
C 1.060812 4 2.078319 3.578535 2.828427 2.828427
C 3.578535 2.078319 4 1.060812 4 0
C 4 -1.060812 3.578535 -2.078319 2.828427 -2.828427
C 2.078319 -3.578535 1.060812 -4 0 -4
C -1.060812 -4 -2.078319 -3.578535 -2.828427 -2.828427
C -3.578535 -2.078319 -4 -1.060812 -4 0
C -4 1.060812 -3.578535 2.078319 -2.828427 2.828427
C -2.078319 3.578535 -1.060812 4 0 4
z
" style="stroke: #1a1a19; stroke-width: 2"/>
    </defs>
    <g clip-path="url(#p80b41a624b)">
     <use xlink:href="#mbab71778b5" x="595.152642" y="160.935311" style="fill: #d95926; stroke: #1a1a19; stroke-width: 2"/>
    </g>
   </g>
   <g id="patch_3">
    <path d="M 57.44 260.44
L 57.44 33.44
" style="fill: none; stroke: #383835; stroke-width: 0.8; stroke-linejoin: miter; stroke-linecap: square"/>
   </g>
   <g id="patch_4">
    <path d="M 57.44 260.44
L 619.184492 260.44
" style="fill: none; stroke: #383835; stroke-width: 0.8; stroke-linejoin: miter; stroke-linecap: square"/>
   </g>
   <g id="text_14">
    <text style="font-weight: 700; font-size: 10px; font-family: 'Inter', 'Helvetica Neue', 'Arial', 'DejaVu Sans', sans-serif; text-anchor: start; fill: #ffffff" x="603.152642" y="47.00139" transform="rotate(-0 603.152642 47.00139)">1,371</text>
   </g>
   <g id="text_15">
    <text style="font-weight: 700; font-size: 10px; font-family: 'Inter', 'Helvetica Neue', 'Arial', 'DejaVu Sans', sans-serif; text-anchor: start; fill: #ffffff" x="603.152642" y="106.2942" transform="rotate(-0 603.152642 106.2942)">995</text>
   </g>
   <g id="text_16">
    <text style="font-weight: 700; font-size: 10px; font-family: 'Inter', 'Helvetica Neue', 'Arial', 'DejaVu Sans', sans-serif; text-anchor: start; fill: #ffffff" x="603.152642" y="163.694686" transform="rotate(-0 603.152642 163.694686)">631</text>
   </g>
   <g id="text_17">
    <text style="font-weight: 700; font-size: 12px; font-family: 'Inter', 'Helvetica Neue', 'Arial', 'DejaVu Sans', sans-serif; text-anchor: start; fill: #ffffff" x="57.44" y="19.44" transform="rotate(-0 57.44 19.44)">Lean library declarations per commit: 1,371 theorems, 995 substantive, at a83f44d</text>
   </g>
   <g id="legend_1">
    <g id="line2d_29">
     <path d="M 66.44 46.538438
L 76.44 46.538438
L 86.44 46.538438
" style="fill: none; stroke: #3987e5; stroke-width: 2; stroke-linecap: round"/>
    </g>
    <g id="text_18">
     <text style="font-size: 10px; font-family: 'Inter', 'Helvetica Neue', 'Arial', 'DejaVu Sans', sans-serif; text-anchor: start; fill: #c3c2b7" x="94.44" y="50.038438" transform="rotate(-0 94.44 50.038438)">Theorems</text>
    </g>
    <g id="line2d_30">
     <path d="M 66.44 61.216563
L 76.44 61.216563
L 86.44 61.216563
" style="fill: none; stroke: #199e70; stroke-width: 2; stroke-linecap: round"/>
    </g>
    <g id="text_19">
     <text style="font-size: 10px; font-family: 'Inter', 'Helvetica Neue', 'Arial', 'DejaVu Sans', sans-serif; text-anchor: start; fill: #c3c2b7" x="94.44" y="64.716563" transform="rotate(-0 94.44 64.716563)">Substantive theorems (heuristic)</text>
    </g>
    <g id="line2d_31">
     <path d="M 66.44 75.894688
L 76.44 75.894688
L 86.44 75.894688
" style="fill: none; stroke: #d95926; stroke-width: 2; stroke-linecap: round"/>
    </g>
    <g id="text_20">
     <text style="font-size: 10px; font-family: 'Inter', 'Helvetica Neue', 'Arial', 'DejaVu Sans', sans-serif; text-anchor: start; fill: #c3c2b7" x="94.44" y="79.394688" transform="rotate(-0 94.44 79.394688)">Definitions and structures</text>
    </g>
   </g>
  </g>
 </g>
 <defs>
  <clipPath id="p80b41a624b">
   <rect x="57.44" y="33.44" width="561.744492" height="227"/>
  </clipPath>
 </defs>
</svg>
